<?xml version="1.0" encoding="UTF-8" standalone="no"?>
<!DOCTYPE svg PUBLIC "-//W3C//DTD SVG 1.1//EN" "http://www.w3.org/Graphics/SVG/1.1/DTD/svg11.dtd">
<svg width="100%" height="100%" viewBox="0 0 1600 1600" version="1.1" xmlns="http://www.w3.org/2000/svg" xmlns:xlink="http://www.w3.org/1999/xlink" xml:space="preserve" xmlns:serif="http://www.serif.com/" style="fill-rule:evenodd;clip-rule:evenodd;stroke-linejoin:round;stroke-miterlimit:2;">
    <g id="colour" transform="matrix(2.66667,0,0,2.66667,0,0)">
        <g transform="matrix(1,0,0,1,131.084,115.106)">
            <path d="M0,492.26C0,492.26 -4.596,430.44 -1.379,409.757C-1.379,409.757 5.64,328.892 12.18,310.937C12.18,310.937 28.73,237.662 36.311,224.068C36.311,224.068 63.265,154.337 69.174,147.77L81.814,123.41C81.814,123.41 70.791,97.9 68.604,85.72C68.604,85.72 63.199,48.491 64.118,38.379C64.118,38.379 67.663,17.626 68.604,15.168C68.604,15.168 96.522,0 133.062,8.733C133.062,8.733 181.093,23.441 196.031,45.043L205.913,44.124L231.192,26.888L232.801,37.23L234.869,41.596L256.012,31.484L257.391,45.963L295.902,59.369C295.902,59.369 338.226,41.366 358.709,39.298C358.709,39.298 400.565,34.625 418.03,51.325C418.03,51.325 418.03,72.391 401.254,99.509C401.254,99.509 368.216,140.657 359.915,147.431C359.915,147.431 374.136,195.111 377.353,223.608C377.353,223.608 384.707,285.658 383.099,314.844C383.099,314.844 380.613,405.879 376.664,423.086C376.664,423.086 371.378,482.078 368.391,491.191L0,492.26Z" style="fill:rgb(12,232,201);fill-rule:nonzero;"/>
        </g>
        <g transform="matrix(1,0,0,1,457.649,230.013)">
            <path d="M0,-30.795C0,-30.795 44.814,-62.969 91.466,-62.05C91.466,-62.05 84.003,-21.832 60.272,5.286C60.272,5.286 35.161,32.174 33.093,31.255L27.807,17.925C27.807,17.925 32.36,6.133 42.515,8.733C42.515,8.733 40.378,-2.158 16.432,-8.673C16.432,-8.673 24.82,-21.602 34.242,-18.155C34.242,-18.155 29.186,-28.727 0,-30.795" style="fill:rgb(252,112,132);fill-rule:nonzero;"/>
        </g>
        <g transform="matrix(1,0,0,1,363.655,475.093)">
            <path d="M0,-44.093C0,-44.093 -21.373,-47.441 -32.633,-28.596C-32.633,-28.596 -41.377,0.36 -7.704,2.659C-7.704,2.659 8.043,-0.099 11.491,-1.938C11.491,-1.938 20.453,3.348 38.379,1.05C38.379,1.05 57.011,-2.48 48.491,-29.975C48.491,-29.975 44.584,-47.203 20.913,-43.759L0,-44.093Z" style="fill:white;fill-rule:nonzero;"/>
        </g>
        <g transform="matrix(1,0,0,1,271.904,532.447)">
            <path d="M0,107.553C0,107.553 -10.493,0 95.784,2.758C202.062,5.516 160.695,107.553 160.695,107.553L0,107.553Z" style="fill:white;fill-rule:nonzero;"/>
        </g>
        <g transform="matrix(1,0,0,1,199.688,229.534)">
            <path d="M0,-99.26C0,-99.26 42.856,-107.074 86.98,-57.434L84.222,-55.058C84.222,-55.058 52.857,-63.409 43.49,-56.055C43.49,-56.055 57.104,-47.322 56.185,-41.347C56.185,-41.347 24.512,-40.818 18.631,-32.579C18.631,-32.579 36.421,-30.776 32.744,-21.123L12.712,7.814C12.712,7.814 -3.975,-39.585 -4.256,-55.058C-4.256,-55.058 -5.856,-93.744 0,-99.26" style="fill:rgb(252,112,132);fill-rule:nonzero;"/>
        </g>
        <g transform="matrix(-0.290874,-0.956761,-0.956761,0.290874,475.233,147.149)">
            <path d="M-44.703,-65.475C-44.703,-65.475 -38.049,-13.251 -58.656,9.828C-58.656,9.828 -54.2,5.472 -44.703,31.97C-44.703,31.97 -28.715,-16.047 -41.404,-64.633L-44.703,-65.475Z" style="fill:rgb(255,71,89);fill-rule:nonzero;"/>
        </g>
        <g transform="matrix(-0.445604,0.89523,0.89523,0.445604,276.353,115.609)">
            <path d="M49.332,-61.729C49.332,-61.729 40.805,-23.85 63.711,-1.85C63.711,-1.85 48.446,16.04 49.332,32.996L44.496,33.67C44.496,33.67 18.975,-25.497 49.332,-61.729" style="fill:rgb(255,71,89);fill-rule:nonzero;"/>
        </g>
        <g transform="matrix(1,0,0,1,76.7148,289.333)">
            <path d="M0,322C0,322 -29.126,266.649 -32.548,252.667C-32.548,252.667 -48.881,202.833 -49.881,192.833C-49.881,192.833 -55.048,158.333 -54.881,154.167C-54.881,154.167 -56.78,120.218 -53.548,112.167C-53.548,112.167 -43.637,63.449 -37.048,57C-37.048,57 -16.548,21.333 3.785,8.167C3.785,8.167 26.285,-6 45.452,15.333C45.452,15.333 65.785,36.82 45.452,64.577C45.452,64.577 20.79,102.797 17.785,115.667C17.785,115.667 2.225,154.669 3.285,177.5C3.285,177.5 1.145,219.627 6.119,231.833C6.119,231.833 19.785,282.333 28.952,293.167C28.952,293.167 47.285,323.167 50.952,328L0,322Z" style="fill:rgb(12,232,201);fill-rule:nonzero;"/>
        </g>
    </g>
    <g id="shadows" transform="matrix(2.66667,0,0,2.66667,0,0)">
        <g transform="matrix(1,0,0,1,232.127,418.767)">
            <path d="M0,-45.35C0,-45.35 -0.189,0 39.777,0C79.744,0 85.356,-37.69 85.356,-37.69L0,-45.35Z" style="fill:rgb(11,206,173);fill-rule:nonzero;"/>
        </g>
        <g transform="matrix(1,0,0,1,419.117,418.46)">
            <path d="M0,-39.298C0,-39.298 0.843,0 34.166,0C34.166,0 66.647,-0.243 68.332,-34.364L0,-39.298Z" style="fill:rgb(11,206,173);fill-rule:nonzero;"/>
        </g>
        <g transform="matrix(1,0,0,1,451.176,233.016)">
            <path d="M0,21.946C-34.665,2.004 -74.755,2.636 -100.735,5.906C-128.996,9.463 -149.288,18.8 -149.49,18.884C-150.425,19.277 -151.504,18.837 -151.897,17.9C-152.29,16.965 -151.85,15.887 -150.914,15.494C-150.709,15.408 -130.036,6.821 -101.302,3.191C-74.73,-0.167 -35.587,0.127 -0.005,20.598C0.875,21.104 0.289,22.113 0,21.946" style="fill:rgb(11,206,173);fill-rule:nonzero;"/>
        </g>
        <g transform="matrix(1,0,0,1,430.697,206.503)">
            <path d="M0,27.212C-51.382,2.072 -107.225,25.042 -107.764,25.259C-108.707,25.637 -109.777,25.18 -110.155,24.238C-110.533,23.296 -110.077,22.226 -109.135,21.847C-108.58,21.625 -53.107,-0.127 -0.223,25.748C0.689,26.194 0.26,27.339 0,27.212" style="fill:rgb(11,206,173);fill-rule:nonzero;"/>
        </g>
        <g transform="matrix(1,0,0,1,133.786,537.96)">
            <path d="M0,-53.597C0,-53.597 13.232,-27.862 64.863,-7.044C64.863,-7.044 26.714,0 -4.984,-2.775C-4.984,-2.775 -6.491,-34.576 0,-53.597" style="fill:rgb(14,221,186);fill-rule:nonzero;"/>
        </g>
        <g transform="matrix(1,0,0,1,130.774,604.149)">
            <path d="M0,-57.102C0,-57.102 9.503,-28.551 77.353,-12.529C77.353,-12.529 35.692,-0.443 0.115,0C0.115,0 -5.103,-35.216 0,-57.102" style="fill:rgb(14,221,186);fill-rule:nonzero;"/>
        </g>
        <g transform="matrix(1,0,0,1,141.673,480.942)">
            <path d="M0,-48.626C0,-48.626 8.409,-21.116 52.416,-2.994C52.416,-2.994 18.781,0 -8.462,-4.989C-8.462,-4.989 -7.176,-32.672 0,-48.626" style="fill:rgb(14,221,186);fill-rule:nonzero;"/>
        </g>
        <g transform="matrix(1,0,0,1,151.179,430.45)">
            <path d="M0,-40.52C0,-40.52 6.257,-18.271 42.659,-1.957C42.659,-1.957 14.786,0 -7.676,-4.549C-7.676,-4.549 -6.183,-27.432 0,-40.52" style="fill:rgb(14,221,186);fill-rule:nonzero;"/>
        </g>
        <g transform="matrix(1,0,0,1,163.366,387.936)">
            <path d="M0,-34.026C0,-34.026 2.828,-16.09 29.722,0C29.722,0 7.795,-1.047 -9.31,-6.67C-9.31,-6.67 -6.033,-24.385 0,-34.026" style="fill:rgb(14,221,186);fill-rule:nonzero;"/>
        </g>
        <g transform="matrix(1,0,0,1,172.54,352.497)">
            <path d="M0,-25.917C0,-25.917 2.055,-17.843 22.639,0C22.639,0 5.937,-0.797 -7.091,-5.08C-7.091,-5.08 -4.595,-18.574 0,-25.917" style="fill:rgb(14,221,186);fill-rule:nonzero;"/>
        </g>
        <g transform="matrix(1,0,0,1,182.978,321.029)">
            <path d="M0,-20.307C0,-20.307 1.61,-13.98 17.739,0C17.739,0 4.652,-0.624 -5.557,-3.98C-5.557,-3.98 -3.6,-14.553 0,-20.307" style="fill:rgb(14,221,186);fill-rule:nonzero;"/>
        </g>
        <g opacity="0.7">
            <g transform="matrix(-0.728229,-0.685334,-0.685334,0.728229,218.669,93.7595)">
                <path d="M-88.616,-22.5C-88.616,-22.5 -75.577,-16.565 -66.166,-6.446C-66.166,-6.446 -88.929,-4.323 -88.616,8.716C-88.616,8.716 -49.238,4.009 -12.27,38.697C-12.27,38.697 -30.736,-16.604 -88.616,-22.5" style="fill:white;fill-rule:nonzero;"/>
            </g>
        </g>
        <g opacity="0.7">
            <g transform="matrix(1,0,0,1,461.99,177.154)">
                <path d="M0,-15.842C0,-15.842 18.481,-24.412 36.181,-16.317C36.181,-16.317 8.416,-2.638 18.169,8.866C18.169,8.866 62.234,-11.489 88.889,-7.965C88.889,-7.965 75.273,-24.708 44.445,-24.358C44.445,-24.358 7.635,-24.485 0,-15.842" style="fill:white;fill-rule:nonzero;"/>
            </g>
        </g>
        <g transform="matrix(1,0,0,1,504.216,608.068)">
            <path d="M0,-29.368C0,-29.368 -3.507,-14.184 -33.274,-14.816C-33.274,-14.816 -16.031,-3.886 -5.997,0C-5.997,0 0.312,-18.768 0,-29.368" style="fill:rgb(14,221,186);fill-rule:nonzero;"/>
        </g>
        <g transform="matrix(1,0,0,1,511.867,550.575)">
            <path d="M0,-29.486C0,-29.486 2.154,-18.01 -27.451,-14.249C-27.451,-14.249 -13.993,0 -2.631,0C-2.631,0 0.532,-18.895 0,-29.486" style="fill:rgb(14,221,186);fill-rule:nonzero;"/>
        </g>
        <g transform="matrix(1,0,0,1,512.602,497.925)">
            <path d="M0,-24.117C0,-24.117 -8.936,-13.26 -22.452,-11.654C-22.452,-11.654 -11.201,-4.527 -2.152,0C-2.152,0 0.435,-15.455 0,-24.117" style="fill:rgb(14,221,186);fill-rule:nonzero;"/>
        </g>
        <g transform="matrix(1,0,0,1,514.662,456.443)">
            <path d="M0,-17.713C0,-17.713 -6.563,-9.739 -16.49,-8.56C-16.49,-8.56 -8.227,-3.325 -1.58,0C-1.58,0 0.319,-11.351 0,-17.713" style="fill:rgb(14,221,186);fill-rule:nonzero;"/>
        </g>
        <g transform="matrix(1,0,0,1,373.778,522.438)">
            <path d="M0,1.977C-16.484,1.977 -28.015,-7.798 -28.187,-7.948C-28.761,-8.447 -28.822,-9.316 -28.324,-9.892C-27.824,-10.467 -26.954,-10.529 -26.379,-10.03C-25.39,-9.175 -0.944,12.506 27.052,-8.258C27.664,-8.711 28.386,-8.335 27.775,-7.881C17.809,-0.489 8.28,1.977 0,1.977" style="fill:rgb(11,206,173);fill-rule:nonzero;"/>
        </g>
        <g transform="matrix(1,0,0,1,328.751,486.417)">
            <path d="M0,-21.36C0,-21.36 8.582,0 35.248,-1.5L36.591,-8.781L24.248,-8.665L12.584,-11.755L0,-21.36Z" style="fill:rgb(11,206,173);fill-rule:nonzero;"/>
        </g>
        <g transform="matrix(1,0,0,1,413.554,484.363)">
            <path d="M0,-16.196C0,-16.196 -3.02,-4.054 -27.745,0L-28.72,-8.098L-18.47,-6.727L-7.137,-9.779L0,-16.196Z" style="fill:rgb(11,206,173);fill-rule:nonzero;"/>
        </g>
        <g opacity="0.7">
            <g transform="matrix(1,0,0,1,54.6005,330.207)">
                <path d="M0,-6.253C0,-6.253 5.066,34.936 58.37,38.515C58.37,38.515 78.474,12.126 76.603,-5.874C76.603,-5.874 75.369,-26.79 58.575,-33.046C58.575,-33.046 44.736,-44.768 19.068,-27.488L0,-6.253Z" style="fill:white;fill-rule:nonzero;"/>
            </g>
        </g>
        <g transform="matrix(1,0,0,1,88.5703,342.922)">
            <path d="M0,49.431C-12.889,49.431 -23.741,45.993 -32.373,39.155C-49.254,25.781 -48.221,3.414 -48.297,2.512C-48.458,0.585 -45.484,0 -45.322,1.924C-45.295,2.219 -42.437,22.295 -27.972,33.71C-18.298,41.346 -3.087,45.982 13.289,43.552C15.202,43.264 14.229,48.192 12.317,48.476C8.027,49.113 3.918,49.431 0,49.431" style="fill:rgb(11,206,173);fill-rule:nonzero;"/>
        </g>
        <g transform="matrix(1,0,0,1,75.5786,387.771)">
            <path d="M0,35.673C-18.685,35.673 -31.639,26.504 -39.669,18.86C-50.171,8.863 -50.563,0.819 -50.745,0.353C-51.448,-1.447 -48.93,-3.996 -48.226,-2.197C-47.564,-0.521 -30.928,39.669 12.667,31.554C14.571,31.202 14.848,34.082 12.948,34.437C8.359,35.29 4.044,35.673 0,35.673" style="fill:rgb(11,206,173);fill-rule:nonzero;"/>
        </g>
        <g transform="matrix(1,0,0,1,31.6553,436.387)">
            <path d="M0,7.051C-10.6,-0.071 -11.066,-9.828 -11.251,-10.197C-12.117,-11.926 -9.866,-14.062 -8.998,-12.343C-8.367,-11.105 4.845,21.113 50.179,6.488C52.018,5.894 53.802,9.691 51.954,10.259C44.586,14.863 18.147,19.559 0,7.051" style="fill:rgb(11,206,173);fill-rule:nonzero;"/>
        </g>
        <g transform="matrix(1,0,0,1,56.0605,468.324)">
            <path d="M0,13.813C-20.24,13.813 -30.45,1.159 -31.196,0.542C-32.687,-0.69 -31.234,-4.086 -29.745,-2.861C-28.85,-2.129 -7.499,17.899 22.292,4.965C24.064,4.198 25.853,7.617 24.08,8.387C14.942,12.353 7.489,13.813 0,13.813" style="fill:rgb(11,206,173);fill-rule:nonzero;"/>
        </g>
        <g transform="matrix(1,0,0,1,53.7344,504.248)">
            <path d="M0,9.879C-14.997,9.879 -20.637,3.717 -21.102,3.328C-22.586,2.09 -21.121,-1.283 -19.637,-0.063C-19.01,0.441 -3.059,11.206 26.113,-0.603C27.903,-1.327 29.531,4.159 27.74,4.885C16.672,9.365 7.432,9.879 0,9.879" style="fill:rgb(11,206,173);fill-rule:nonzero;"/>
        </g>
        <g transform="matrix(1,0,0,1,57.3745,531.601)">
            <path d="M0,16.629C-9.883,16.629 -13.139,12.657 -13.605,12.428C-15.34,11.575 -15.268,6.295 -13.534,7.138C-12.803,7.487 4.459,15.456 27.563,1.024C29.205,0 31.842,3.834 30.272,4.961C17.125,14.399 8.296,16.629 0,16.629" style="fill:rgb(11,206,173);fill-rule:nonzero;"/>
        </g>
        <g transform="matrix(1,0,0,1,70.7646,561.033)">
            <path d="M0,16.428C-7.592,16.428 -12.666,14.437 -13.093,14.263C-14.884,13.534 -15.256,9.057 -13.468,9.774C-12.695,10.08 4.956,16.788 23.715,0.89C25.189,-0.36 28.715,2.98 27.24,4.23C15.672,14.034 8.323,16.428 0,16.428" style="fill:rgb(11,206,173);fill-rule:nonzero;"/>
        </g>
        <g transform="matrix(1,0,0,1,455.809,210.226)">
            <path d="M0,-8.868C0,-8.868 27.563,-1.542 24.49,4.392L34.263,1.162C34.263,1.162 22.809,-13.26 0,-8.868" style="fill:rgb(30,216,180);fill-rule:nonzero;"/>
        </g>
        <g transform="matrix(1,0,0,1,474.446,237.281)">
            <path d="M0,-11.778C0,-11.778 22.587,-2.262 17.723,2.497L25.719,1.465C25.719,1.465 20.196,-14.275 0,-11.778" style="fill:rgb(30,216,180);fill-rule:nonzero;"/>
        </g>
        <g transform="matrix(1,0,0,1,465.818,179.036)">
            <path d="M0,14.904C-2.292,12.678 -20.595,-4.334 -38.831,-4.56C-38.831,-4.56 -12.906,13.714 -10.112,19.464L0,14.904Z" style="fill:rgb(30,216,180);fill-rule:nonzero;"/>
        </g>
        <g transform="matrix(1,0,0,1,283.91,171.649)">
            <path d="M0,2.827C0,2.827 -21.595,-3.119 -32.364,8.524L-40.732,1.83C-40.732,1.83 -19.59,-5.697 0,2.827" style="fill:rgb(30,216,180);fill-rule:nonzero;"/>
        </g>
        <g transform="matrix(1,0,0,1,251.75,193.729)">
            <path d="M0,-2.017C0,-2.017 -19.722,0.055 -23.486,6.038L-32.101,2.894C-32.101,2.894 -19,-8.055 0,-2.017" style="fill:rgb(30,216,180);fill-rule:nonzero;"/>
        </g>
        <g transform="matrix(1,0,0,1,55.7089,327.737)">
            <path d="M0,6.527L-3.935,0.287L3.436,0L0,6.527Z" style="fill:rgb(12,232,201);fill-rule:nonzero;"/>
        </g>
        <g transform="matrix(1,0,0,1,53.8295,325.818)">
            <path d="M0,6.527L-3.935,0.287L3.436,0L0,6.527Z" style="fill:rgb(12,232,201);fill-rule:nonzero;"/>
        </g>
        <g transform="matrix(1,0,0,1,58.5353,332.345)">
            <path d="M0,6.527L-3.935,0.287L3.436,0L0,6.527Z" style="fill:rgb(12,232,201);fill-rule:nonzero;"/>
        </g>
        <g transform="matrix(1,0,0,1,61.2006,337.136)">
            <path d="M0,6.527L-3.935,0.287L3.436,0L0,6.527Z" style="fill:rgb(12,232,201);fill-rule:nonzero;"/>
        </g>
        <g transform="matrix(1,0,0,1,65.7949,341.613)">
            <path d="M0,7.074L-5.08,1.725L2.092,0L0,7.074Z" style="fill:rgb(12,232,201);fill-rule:nonzero;"/>
        </g>
        <g transform="matrix(1,0,0,1,70.1767,346.114)">
            <path d="M0,7.34L-5.991,3.036L0.731,0L0,7.34Z" style="fill:rgb(12,232,201);fill-rule:nonzero;"/>
        </g>
        <g transform="matrix(1,0,0,1,75.51,350.24)">
            <path d="M0,7.34L-5.991,3.036L0.731,0L0,7.34Z" style="fill:rgb(12,232,201);fill-rule:nonzero;"/>
        </g>
        <g transform="matrix(1,0,0,1,81.3717,353.304)">
            <path d="M0,7.348L-6.69,4.239L-0.652,0L0,7.348Z" style="fill:rgb(12,232,201);fill-rule:nonzero;"/>
        </g>
        <g transform="matrix(1,0,0,1,87.5384,356.9)">
            <path d="M0,7.348L-6.69,4.239L-0.652,0L0,7.348Z" style="fill:rgb(12,232,201);fill-rule:nonzero;"/>
        </g>
        <g transform="matrix(1,0,0,1,93.4269,359.35)">
            <path d="M0,7.271L-6.918,4.711L-1.242,0L0,7.271Z" style="fill:rgb(12,232,201);fill-rule:nonzero;"/>
        </g>
        <g transform="matrix(1,0,0,1,100.449,361.014)">
            <path d="M0,6.847L-7.302,5.799L-2.744,0L0,6.847Z" style="fill:rgb(12,232,201);fill-rule:nonzero;"/>
        </g>
        <g transform="matrix(1,0,0,1,106.548,362.347)">
            <path d="M0,6.847L-7.302,5.799L-2.744,0L0,6.847Z" style="fill:rgb(12,232,201);fill-rule:nonzero;"/>
        </g>
        <g transform="matrix(1,0,0,1,111.548,364.198)">
            <path d="M0,6.847L-7.302,5.799L-2.744,0L0,6.847Z" style="fill:rgb(12,232,201);fill-rule:nonzero;"/>
        </g>
        <g opacity="0.5">
            <g transform="matrix(1,0,0,1,59.6296,281.336)">
                <path d="M0,38.996C0,38.996 41.778,-4.002 71.574,42.998C71.574,42.998 69.3,16.885 37.169,11.941C37.169,11.941 11.63,15.328 0,38.996" style="fill:white;fill-rule:nonzero;"/>
            </g>
        </g>
    </g>
    <g id="Layer-2" serif:id="Layer 2" transform="matrix(2.66667,0,0,2.66667,0,0)">
        <g transform="matrix(1,0,0,1,497.496,248.108)">
            <path d="M0,357.025C0.137,356.375 12.826,288.269 15.54,198.723C18.249,109.346 1.119,49.73 0.965,49.138L0.938,49.029C-3.112,31.637 -6.488,15.59 -12.721,1.335C-13.636,-0.758 -11.572,-2.235 -10.656,-0.141C-4.226,14.565 1.145,31.078 5.308,48.945C5.887,51.214 22.838,107.863 20.133,197.136C17.396,287.465 5.476,355.32 5.337,355.976C4.926,357.924 -0.471,359.26 0,357.025" style="fill-rule:nonzero;"/>
        </g>
        <g transform="matrix(0.602668,-0.797992,-0.797992,-0.602668,501.238,225.636)">
            <path d="M-11.428,-6.017C-6.331,3.328 -12.63,15.235 -15.873,20.967C-16.999,22.955 -12.553,26.108 -11.428,24.112C-5.384,13.432 -4.293,2.654 -9.689,-7.239C-10.783,-9.245 -12.232,-7.49 -11.428,-6.017" style="fill-rule:nonzero;"/>
        </g>
        <g transform="matrix(1,0,0,1,490.73,138.283)">
            <path d="M0,73.861C-6.232,66.071 -25.468,62.142 -32.81,62.868L-34.921,63.075L-36.32,61.482C-60.521,33.961 -86.814,27.601 -100.333,25.164C-102.054,24.853 -103.534,23.83 -104.502,22.282C-106.203,19.561 -105.232,13.953 -104.614,9.471C-105.065,9.769 -105.518,10.069 -105.969,10.367C-113.72,15.496 -119.596,20.488 -123.372,20.488C-123.394,20.488 -123.415,20.492 -123.437,20.488C-130.751,19.109 -126.799,7.471 -126.844,5.321C-127.41,5.747 -132.431,9.993 -132.995,10.42C-143.875,18.656 -149.921,22.299 -153.352,22.616C-171.783,24.317 -189.174,29.064 -205.044,36.725L-206.293,37.328L-207.653,37.056C-219.612,31.542 -239.745,32.542 -246.042,36.175C-248.02,37.317 -250.397,33.746 -248.418,32.605C-239.629,27.533 -220.048,30.834 -206.482,33.279C-190.095,25.553 -173.14,20.745 -154.248,18.986C-151.975,18.312 -141.05,11.209 -136.151,7.501C-131.525,3.999 -127.156,0.692 -124.262,-1.022C-124.262,-1.022 -124.2,15.066 -123.423,15.891L-123.419,15.891C-121.674,16.466 -96.79,0.058 -96.79,0.058C-96.79,0.058 -103.633,11.313 -100.383,20.931C-85.743,23.778 -57.136,32.62 -32.361,60.038C-32.265,60.037 -32.168,60.037 -32.072,60.037C-22.436,60.037 -5.817,62.768 1.864,72.37C3.291,74.154 0.817,74.883 0,73.861" style="fill-rule:nonzero;"/>
        </g>
        <g transform="matrix(0.0565009,0.998403,0.998403,-0.0565009,233.11,172.606)">
            <path d="M21.327,-15.323C14.495,-8.433 12.784,10.893 16.175,21.88C16.848,24.064 21.998,21.777 21.327,19.597C18.314,9.838 19.375,-10.92 23.219,-14.796C24.078,-15.663 22.936,-16.946 21.327,-15.323" style="fill-rule:nonzero;"/>
        </g>
        <g transform="matrix(1,0,0,1,127.911,209.385)">
            <path d="M0,394.445C-0.257,392.697 -6.2,350.886 0.783,285.051C7.216,224.42 26.4,131.418 81.278,32.576C82.153,30.608 88.966,15.861 103.773,-1.176C105.272,-2.898 106.92,-0.231 105.421,1.494C90.746,18.379 85.17,34.074 85.106,34.221L84.926,34.587C30.655,132.275 11.688,226.022 5.334,285.924C-1.541,350.726 5.366,394.665 5.428,395.082C5.759,397.343 0.302,396.502 0,394.445" style="fill-rule:nonzero;"/>
        </g>
        <g transform="matrix(1,0,0,1,210.819,118.038)">
            <path d="M0,123.416C-0.242,122.704 -9.641,104.803 -13.785,82.63C-19.406,52.544 -18.385,29.488 -12.564,12.289L-12.132,11.011L-11.029,10.234C-10.439,9.818 4.612,1.871 28.347,0.512C67.485,-1.723 96.283,20.7 118.181,39.909C119.899,41.416 118.12,43.959 116.403,42.452C86.665,16.366 54.821,2.527 26.063,4.175C8.237,5.196 -6.266,12.356 -9.766,14.463C-21.668,52.714 3.013,119.174 3.238,119.839C3.972,122.003 0.584,125.139 0,123.416" style="fill-rule:nonzero;"/>
        </g>
        <g transform="matrix(1,0,0,1,490.217,136.724)">
            <path d="M0,124.062C26.918,100.454 42.19,76.299 48.719,60.192C54.097,46.927 58.565,34.949 59.079,30.789C17.455,-2.313 -59.552,38.342 -60.282,38.728C-62.305,39.794 -65.246,36.156 -63.226,35.089C-62.425,34.666 -41.492,22.827 -16.907,16.952C16.276,9.022 43.371,12.699 61.451,27.587L63.058,28.91L62.953,30.989C62.848,33.076 56.992,78.068 2.697,125.686C1.912,126.375 -1.718,125.568 0,124.062" style="fill-rule:nonzero;"/>
        </g>
        <g transform="matrix(1,0,0,1,285.749,121.292)">
            <path d="M0,51.049C-11.048,38.159 -34.02,19.662 -58.822,13.496C-73.656,9.807 -83.929,11.648 -84.03,11.667C-86.272,12.081 -86.904,9.489 -84.665,9.057C-82.818,8.701 -39.849,-0.954 1.685,47.503C3.172,49.238 0.818,52.003 0,51.049" style="fill-rule:nonzero;"/>
        </g>
        <g transform="matrix(0.277349,0.960769,0.960769,-0.277349,476.947,142.16)">
            <path d="M46.475,-35.235C30.795,11.374 42.531,59.818 43.059,61.648C43.693,63.843 46.475,63.536 46.475,63.536C46.352,63.111 35.954,12.503 50.783,-31.578C51.049,-32.366 47.086,-37.052 46.475,-35.235" style="fill-rule:nonzero;"/>
        </g>
        <g transform="matrix(1,0,0,1,75.4502,291.274)">
            <path d="M0,318.374C-23.208,280.936 -37.402,243.395 -46.134,206.794C-53.136,177.444 -57.383,148.63 -54.812,121.149C-50.503,75.089 -34.315,48.758 -33.03,46.73C-31.557,44.073 -9.608,5.246 16.986,0.124C26.05,-1.618 34.584,0.708 42.354,7.048C51.01,13.038 56.155,20.654 57.647,29.685C60.554,47.273 48.471,63.736 47.956,64.429C26.187,95.603 12.598,128.199 7.619,161.232C3.639,187.639 5.117,214.408 12.012,240.796C23.786,285.859 46.607,315.577 46.846,315.862C47.911,317.131 48.321,319.992 47.254,318.725C46.247,317.527 21.43,288.864 9.273,242.567C2.129,215.362 0.578,187.752 4.661,160.506C9.759,126.492 23.697,92.985 46.09,60.918C46.253,60.696 56.228,45.682 53.722,30.632C52.493,23.249 48.162,15.953 40.849,10.918L40.646,10.766C34.204,5.478 24.491,2.597 17.12,4.017C-7.097,8.68 -29.607,49.321 -29.822,49.711L-29.928,49.889C-30.093,50.147 -47.684,76.471 -51.874,122.091C-54.334,148.886 -50.1,177.006 -43.233,205.671C-34.636,241.56 -21.711,279.414 1.1,316.212C1.973,317.62 0.568,319.29 0,318.374" style="fill-rule:nonzero;"/>
        </g>
        <g transform="matrix(1,0,0,1,255.125,171.061)">
            <path d="M0,20.689C-0.198,20.689 -0.398,20.66 -0.597,20.598C-1.651,20.268 -2.239,19.146 -1.91,18.092C-0.243,12.76 -10.142,4.715 -13.39,2.668C-14.325,2.079 -11.193,-0.307 -10.257,0.284C-10.108,0.378 -7.57,2.623 -4.303,5.926C0.363,10.644 2.898,16.119 1.641,20.141C1.374,20.996 0.852,20.689 0,20.689" style="fill-rule:nonzero;"/>
        </g>
        <g transform="matrix(1,0,0,1,231.591,196.485)">
            <path d="M0,11.282C0.359,10.48 -0.644,9.773 -1.007,8.991C-2.472,5.845 -8.227,1.893 -12.141,0.771C-13.202,0.467 -13.102,-2.376 -12.042,-2.075C-10.827,-1.728 -0.095,1.481 2.617,7.3C3.467,9.123 3.479,11.065 2.651,12.915C2.319,13.658 -0.451,12.29 0,11.282" style="fill-rule:nonzero;"/>
        </g>
        <g transform="matrix(1,0,0,1,475.114,209.551)">
            <path d="M0,13.289C-0.217,13.289 -0.437,13.242 -0.646,13.142C-1.393,12.785 -1.71,11.89 -1.353,11.142C1.728,4.693 6.19,2.128 9.392,1.112C12.899,0 15.688,0.456 15.806,0.476C16.622,0.615 17.172,1.39 17.032,2.206C16.893,3.021 16.114,3.569 15.307,3.434C14.907,3.37 6.275,2.13 1.354,12.435C1.097,12.974 0.56,13.289 0,13.289" style="fill-rule:nonzero;"/>
        </g>
        <g transform="matrix(1,0,0,1,485.455,234.446)">
            <path d="M0,14.993C-0.238,14.993 -0.48,14.936 -0.706,14.816C-1.437,14.426 -1.713,13.517 -1.322,12.786C5.506,0 14.768,2.746 15.16,2.869C15.95,3.118 16.389,3.961 16.14,4.751C15.89,5.541 15.05,5.981 14.258,5.731C13.974,5.646 6.932,3.7 1.324,14.199C1.054,14.705 0.535,14.993 0,14.993" style="fill-rule:nonzero;"/>
        </g>
    </g>
    <g id="face" transform="matrix(2.66667,0,0,2.66667,0,0)">
        <g transform="matrix(1,0,0,1,365.609,492.831)">
            <path d="M0,-16.343C0,-16.343 -5.204,2.617 9.348,2.387C9.348,2.387 17.121,2.988 19.419,-6.965C19.419,-6.965 21.947,-15.768 17.351,-17.377L7.469,-19.331L0,-16.343Z" style="fill:rgb(252,112,132);fill-rule:nonzero;"/>
        </g>
        <g transform="matrix(-0.987555,0.157275,0.157275,0.987555,467.987,398.16)">
            <path d="M14.317,-63.017C14.317,-63.017 -23.404,-68.031 -23.412,-23.268C-23.412,-23.268 -18.48,11.597 14.317,9.067C14.317,9.067 47.852,5.328 44.069,-34.015C44.069,-34.015 39.428,-59.259 14.317,-63.017" style="fill:white;fill-rule:nonzero;"/>
        </g>
        <g transform="matrix(-0.672556,0.740046,0.740046,0.672556,308.188,371.833)">
            <path d="M9.785,-71.741C9.785,-71.741 69.754,-72.822 56.53,-10.311C56.53,-10.311 47.774,18.582 9.785,13.456C9.785,13.456 -28.574,5.093 -26.664,-36.647C-26.664,-36.647 -24.684,-65.705 9.785,-71.741" style="fill:white;fill-rule:nonzero;"/>
        </g>
        <g transform="matrix(1,0,0,1,276.939,407.583)">
            <path d="M0,-84.878C-21.036,-84.878 -41.826,-64.826 -41.826,-42.439C-41.826,-20.052 -21.036,-0 0,-0C21.036,-0 38.149,-19.133 38.149,-41.52C38.149,-63.907 21.036,-84.878 0,-84.878M-0.919,4.596C-25.503,4.596 -45.503,-16.504 -45.503,-42.439C-45.503,-68.374 -25.503,-89.474 -0.919,-89.474C23.664,-89.474 43.665,-68.374 43.665,-42.439C43.665,-16.504 23.664,4.596 -0.919,4.596" style="fill-rule:nonzero;"/>
        </g>
        <g transform="matrix(1,0,0,1,336.078,483.216)">
            <path d="M0,-43.843C0,-43.843 -12.666,-7.668 25.969,-6.154C25.969,-6.154 -3.447,0 -7.814,-28.011C-7.814,-28.011 -5.58,-41.079 0,-43.843" style="fill:rgb(229,229,229);fill-rule:nonzero;"/>
        </g>
        <g transform="matrix(1,0,0,1,383.649,476.71)">
            <path d="M0,-8.194C0,-8.194 0.077,-3.11 8.657,0C8.657,0 -2.742,0 -8.035,-3.501L0,-8.194Z" style="fill:rgb(229,229,229);fill-rule:nonzero;"/>
        </g>
        <g transform="matrix(0.999123,0.0418769,0.0418769,-0.999123,374.228,447.557)">
            <path d="M0.459,-0.01C-9.576,-0.43 -16.478,5.313 -16.762,12.081C-17.046,18.849 -9.576,21.515 0.46,21.936C10.496,22.356 17.243,20.286 17.527,13.518C17.811,6.75 10.495,0.411 0.459,-0.01" style="fill:rgb(255,71,89);fill-rule:nonzero;"/>
        </g>
        <g transform="matrix(1,0,0,1,353.945,430.336)">
            <path d="M0,49.819C-1.469,49.819 -2.951,49.71 -4.441,49.472C-13.813,47.979 -17.444,44.936 -24.563,35.761C-24.762,35.395 -30.233,27.746 -26.62,18.148C-23.777,10.596 -17.8,4.757 -7.041,0.79C-4.9,0 -3.875,2.246 -6.018,3.036C-14.422,6.135 -20.595,13.102 -22.554,18.305C-24.813,24.306 -22.836,30.83 -22.812,30.887C-19.246,39.449 -10.781,44.817 -4.085,45.894C9.854,48.147 29.101,37.337 29.247,37.2C30.913,35.64 32.899,37.066 31.238,38.631C30.581,39.248 16.224,49.819 0,49.819" style="fill-rule:nonzero;"/>
        </g>
        <g transform="matrix(1,0,0,1,253.927,276.872)">
            <path d="M0,27.48C-1.179,27.48 -2.349,26.979 -3.168,26.006C-4.638,24.258 -4.414,21.649 -2.665,20.178C-1.684,19.351 21.699,0 49.28,4.782C51.531,5.172 51.035,7.807 48.786,7.418C24.95,3.282 2.872,26.33 2.661,26.509C1.885,27.161 0.94,27.48 0,27.48" style="fill-rule:nonzero;"/>
        </g>
        <g transform="matrix(0,-1,-1,0,274.566,356.125)">
            <path d="M-9.936,-9.936C-15.424,-9.936 -19.872,-5.487 -19.872,0C-19.872,5.488 -15.424,9.936 -9.936,9.936C-4.448,9.936 0,5.488 0,0C0,-5.487 -4.448,-9.936 -9.936,-9.936" style="fill-rule:nonzero;"/>
        </g>
        <g transform="matrix(0,-1,-1,0,453.873,364.224)">
            <path d="M-9.936,-9.936C-15.424,-9.936 -19.872,-5.487 -19.872,0C-19.872,5.488 -15.424,9.936 -9.936,9.936C-4.448,9.936 0,5.488 0,0C0,-5.487 -4.448,-9.936 -9.936,-9.936" style="fill-rule:nonzero;"/>
        </g>
        <g transform="matrix(1,0,0,1,376.366,439.015)">
            <path d="M0,36.295C-1.444,35.81 -0.613,33.339 0.835,33.824C1.017,33.885 20.103,39.842 30.08,33.406C33.798,31.008 36.796,27.197 37.355,21.755C39.014,-0.548 22.405,-5.802 21.776,-5.858C20.259,-5.993 20.756,-7.804 22.266,-7.675C29.471,-7.032 41.743,-0.872 40.092,21.322C39.352,28.52 36.37,33.813 31.22,37.13C18.927,44.099 0.531,36.474 0,36.295" style="fill-rule:nonzero;"/>
        </g>
        <g transform="matrix(1,0,0,1,454.119,310.729)">
            <path d="M0,15.262C-24.653,15.262 -28.112,4.348 -28.382,3.651C-29.114,1.757 -25.062,0 -24.306,1.852C-24.191,2.108 -22.475,5.7 -16.124,8.239C-9.788,10.772 3.249,14.459 24.998,8.874C26.969,8.37 27.875,10.896 25.908,11.401C15.088,14.178 7.181,15.262 0,15.262" style="fill-rule:nonzero;"/>
        </g>
        <g transform="matrix(1,0,0,1,455.712,408.502)">
            <path d="M0,-70.17C-21.044,-70.17 -34.472,-52.911 -34.472,-35.085C-34.472,-17.259 -18.312,-0 -1.839,-0C19.897,-0 29.876,-19.098 29.876,-36.923C29.876,-54.749 16.474,-70.17 0,-70.17M-1.839,3.677C-21.86,3.677 -38.149,-13.711 -38.149,-35.085C-38.149,-56.458 -21.86,-73.847 -1.839,-73.847C18.183,-73.847 34.472,-56.458 34.472,-35.085C34.472,-13.711 18.183,3.677 -1.839,3.677" style="fill-rule:nonzero;"/>
        </g>
        <g transform="matrix(0,-1,-1,0,274.566,363.399)">
            <path d="M-2.662,-2.662C-4.132,-2.662 -5.324,-1.47 -5.324,0C-5.324,1.47 -4.132,2.662 -2.662,2.662C-1.192,2.662 0,1.47 0,0C0,-1.47 -1.192,-2.662 -2.662,-2.662" style="fill:rgb(255,255,0);fill-rule:nonzero;"/>
        </g>
        <g transform="matrix(0,-1,-1,0,453.873,371.498)">
            <path d="M-2.662,-2.662C-4.132,-2.662 -5.324,-1.47 -5.324,0C-5.324,1.47 -4.132,2.662 -2.662,2.662C-1.192,2.662 0,1.47 0,0C0,-1.47 -1.192,-2.662 -2.662,-2.662" style="fill:rgb(255,255,0);fill-rule:nonzero;"/>
        </g>
        <g transform="matrix(-0.160526,0.987032,0.987032,0.160526,319.052,146.789)">
            <path d="M21.011,-31.643C21.011,-31.643 24.657,-27.014 34.59,-24.467C41.429,-22.713 21.011,13.216 21.011,13.216C21.011,13.216 10.567,15.211 7.995,-0.289L21.011,-31.643Z" style="fill:rgb(12,232,201);fill-rule:nonzero;"/>
        </g>
        <g transform="matrix(1,0,0,1,374.029,474.356)">
            <path d="M0,22.242C-0.1,22.242 0.72,22.242 0.618,22.24C-3.509,22.171 -6.539,20.74 -8.388,17.986C-12.409,11.998 -9.722,2.272 -9.298,1.183C-8.837,0 -7.312,1.668 -7.773,2.851C-8.68,5.195 -9.799,19.368 -0.224,19.482C11.779,19.712 10.644,4.884 10.131,2.5C9.864,1.259 11.599,0.292 11.867,1.533C11.961,1.972 14.122,12.341 9.251,18.27C7.085,20.906 3.972,22.242 0,22.242" style="fill-rule:nonzero;"/>
        </g>
        <g transform="matrix(1,0,0,1,292.652,440.697)">
            <path d="M0,25.89C30.069,-1.209 55.303,7.756 56.44,8.228C57.378,8.617 57.821,9.694 57.432,10.631C57.043,11.569 55.97,12.011 55.03,11.624C53.949,11.177 28.874,1.321 0.623,26.782C0.272,27.099 -0.755,26.57 0,25.89" style="fill-rule:nonzero;"/>
        </g>
        <g transform="matrix(1,0,0,1,303.911,459.048)">
            <path d="M0,28.547C13.173,3.624 43.421,-1.088 44.702,-1.277C45.7,-1.423 46.639,-0.732 46.787,0.274C46.936,1.277 46.242,2.212 45.238,2.361C44.942,2.405 12.781,6.097 0.493,29.346C0.163,29.97 -0.474,29.445 0,28.547" style="fill-rule:nonzero;"/>
        </g>
        <g transform="matrix(1,0,0,1,449.92,445.954)">
            <path d="M0,17.479C-15.876,1.817 -41.48,7.336 -41.738,7.392C-42.731,7.615 -43.712,6.992 -43.934,6.001C-44.156,5.01 -43.533,4.027 -42.542,3.805C-41.412,3.552 -16.544,-0.354 0.743,16.7C1.466,17.413 0.358,17.833 0,17.479" style="fill-rule:nonzero;"/>
        </g>
        <g transform="matrix(1,0,0,1,445.054,458.31)">
            <path d="M0,20.676C-8.014,4.842 -37.178,3.136 -37.443,3.111C-38.454,3.017 -39.198,2.122 -39.105,1.111C-39.012,0.101 -38.114,-0.64 -37.107,-0.55C-36.816,-0.524 -29.897,0.136 -21.813,2.928C-10.929,6.689 -3.205,12.57 0.522,19.934C0.981,20.84 0.323,21.316 0,20.676" style="fill-rule:nonzero;"/>
        </g>
        <g transform="matrix(1,0,0,1,368.917,479.555)">
            <path d="M0,1.2C0.772,1.2 0.773,0 0,0C-0.772,0 -0.773,1.2 0,1.2" style="fill:rgb(252,79,113);fill-rule:nonzero;"/>
        </g>
        <g transform="matrix(1,0,0,1,372.75,479.983)">
            <path d="M0,1.2C0.772,1.2 0.773,0 0,0C-0.772,0 -0.773,1.2 0,1.2" style="fill:rgb(252,79,113);fill-rule:nonzero;"/>
        </g>
        <g transform="matrix(1,0,0,1,371.5,482.733)">
            <path d="M0,1.2C0.772,1.2 0.773,0 0,0C-0.772,0 -0.773,1.2 0,1.2" style="fill:rgb(252,79,113);fill-rule:nonzero;"/>
        </g>
        <g transform="matrix(1,0,0,1,370.333,486.65)">
            <path d="M0,1.2C0.772,1.2 0.773,0 0,0C-0.772,0 -0.773,1.2 0,1.2" style="fill:rgb(252,79,113);fill-rule:nonzero;"/>
        </g>
        <g transform="matrix(1,0,0,1,375.333,488.233)">
            <path d="M0,1.2C0.772,1.2 0.773,0 0,0C-0.772,0 -0.773,1.2 0,1.2" style="fill:rgb(252,79,113);fill-rule:nonzero;"/>
        </g>
        <g transform="matrix(1,0,0,1,379.167,482.4)">
            <path d="M0,1.2C0.772,1.2 0.773,0 0,0C-0.772,0 -0.773,1.2 0,1.2" style="fill:rgb(252,79,113);fill-rule:nonzero;"/>
        </g>
        <g transform="matrix(1,0,0,1,376.333,477.233)">
            <path d="M0,1.2C0.772,1.2 0.773,0 0,0C-0.772,0 -0.773,1.2 0,1.2" style="fill:rgb(252,79,113);fill-rule:nonzero;"/>
        </g>
        <g transform="matrix(1,0,0,1,378.583,488.733)">
            <path d="M0,1.2C0.772,1.2 0.773,0 0,0C-0.772,0 -0.773,1.2 0,1.2" style="fill:rgb(252,79,113);fill-rule:nonzero;"/>
        </g>
        <g transform="matrix(1,0,0,1,375.167,491.067)">
            <path d="M0,1.2C0.772,1.2 0.773,0 0,0C-0.772,0 -0.773,1.2 0,1.2" style="fill:rgb(252,79,113);fill-rule:nonzero;"/>
        </g>
        <g transform="matrix(1,0,0,1,370.25,489.233)">
            <path d="M0,1.2C0.772,1.2 0.773,0 0,0C-0.772,0 -0.773,1.2 0,1.2" style="fill:rgb(252,79,113);fill-rule:nonzero;"/>
        </g>
        <g transform="matrix(1,0,0,1,367.75,485.4)">
            <path d="M0,1.2C0.772,1.2 0.773,0 0,0C-0.772,0 -0.773,1.2 0,1.2" style="fill:rgb(252,79,113);fill-rule:nonzero;"/>
        </g>
        <g transform="matrix(1,0,0,1,376.25,484.317)">
            <path d="M0,1.2C0.772,1.2 0.773,0 0,0C-0.772,0 -0.773,1.2 0,1.2" style="fill:rgb(252,79,113);fill-rule:nonzero;"/>
        </g>
        <g transform="matrix(1,0,0,1,380.167,479.65)">
            <path d="M0,1.2C0.772,1.2 0.773,0 0,0C-0.772,0 -0.773,1.2 0,1.2" style="fill:rgb(252,79,113);fill-rule:nonzero;"/>
        </g>
    </g>
</svg>
