<?xml version="1.0" encoding="UTF-8" standalone="no"?>
<!DOCTYPE svg PUBLIC "-//W3C//DTD SVG 1.1//EN" "http://www.w3.org/Graphics/SVG/1.1/DTD/svg11.dtd">
<svg width="100%" height="100%" viewBox="0 0 1183 1579" version="1.1" xmlns="http://www.w3.org/2000/svg" xmlns:xlink="http://www.w3.org/1999/xlink" xml:space="preserve" xmlns:serif="http://www.serif.com/" style="fill-rule:evenodd;clip-rule:evenodd;stroke-linecap:round;stroke-miterlimit:10;">
    <g id="Artboard1" transform="matrix(0.639176,0,0,0.710972,91.58,29.9027)">
        <rect x="-143.278" y="-42.059" width="1849.32" height="2219.99" style="fill:none;"/>
        <clipPath id="_clip1">
            <rect x="-143.278" y="-42.059" width="1849.32" height="2219.99"/>
        </clipPath>
        <g clip-path="url(#_clip1)">
            <g id="bg2" transform="matrix(4.17204,0,0,3.75073,-466.377,-782.603)">
                <g opacity="0.7">
                    <g transform="matrix(0.760271,-0.649606,-0.649606,-0.760271,147.85,781.954)">
                        <path d="M-6.345,-2.342C-3.304,1.572 -0.264,5.486 2.778,9.399C7.5,15.478 -1.596,23.308 -6.345,17.195C-9.387,13.281 -12.427,9.367 -15.469,5.454C-20.191,-0.625 -11.095,-8.455 -6.345,-2.342" style="fill:white;fill-rule:nonzero;"/>
                    </g>
                </g>
                <g opacity="0.7">
                    <g transform="matrix(1,0,0,1,108.067,622.668)">
                        <path d="M0,-60.019C-0.537,-54.706 -0.459,-48.037 2.868,-43.536C3.736,-42.361 3.387,-44.575 2.913,-43.24C2.569,-42.27 2.821,-40.618 2.794,-39.584C2.722,-36.759 2.72,-33.932 2.793,-31.106C3.08,-19.997 4.503,-8.896 6.741,1.983C8.048,8.334 15.549,12 21.502,10.364C28.1,8.551 31.194,1.972 29.884,-4.397C27.94,-13.845 26.894,-23.34 26.755,-32.99C26.679,-38.209 27.55,-43.774 26.416,-48.912C25.921,-51.154 24.442,-53.06 23.774,-55.042C23.334,-56.345 23.858,-58.618 24,-60.019C24.652,-66.477 18.018,-72.019 12,-72.019C4.969,-72.019 0.654,-66.495 0,-60.019" style="fill:white;fill-rule:nonzero;"/>
                    </g>
                </g>
                <g opacity="0.7">
                    <g transform="matrix(1,0,0,1,114.182,777.835)">
                        <path d="M0,-138.995C7.631,-114.931 9.858,-89.823 12.48,-64.846C13.743,-52.815 16.237,-40.243 14.845,-28.148C13.309,-14.808 14.148,-3.075 20.485,9.061C23.484,14.804 31.501,16.526 36.904,13.366C42.726,9.961 44.219,2.713 41.209,-3.052C35.92,-13.18 38.973,-22.597 39.258,-33.379C39.583,-45.693 37.158,-58.389 35.874,-70.619C33.235,-95.757 30.819,-121.17 23.143,-145.375C21.184,-151.551 14.802,-155.521 8.381,-153.756C2.301,-152.086 -1.967,-145.197 0,-138.995" style="fill:white;fill-rule:nonzero;"/>
                    </g>
                </g>
                <g opacity="0.7">
                    <g transform="matrix(1,0,0,1,131.842,318.796)">
                        <path d="M0,234.855C2.769,202.986 13.403,172.415 16.743,140.605C18.415,124.678 18.963,108.696 21.633,92.878C24.379,76.61 28.283,60.568 32.396,44.6C33.503,40.302 34.588,35.994 35.752,31.71C36.49,28.999 37.124,25.755 38.75,23.422C40.649,20.698 43.933,18.762 46.402,16.59C49.298,14.044 51.937,10.943 53.491,7.395C56.088,1.463 55.233,-5.486 49.186,-9.024C44.098,-12 35.38,-10.686 32.768,-4.719C31.653,-2.173 30.982,-1.669 28.392,0.504C26.116,2.413 23.736,4.198 21.78,6.452C15.969,13.143 13.635,21.381 11.448,29.765C7.204,46.038 3.011,62.341 -0.137,78.868C-3.427,96.142 -4.982,113.499 -6.389,131.001C-7.678,147.04 -10.741,162.626 -14.192,178.324C-18.304,197.034 -22.339,215.734 -24,234.855C-24.562,241.32 -18.083,246.855 -12,246.855C-5.041,246.855 -0.563,241.339 0,234.855" style="fill:white;fill-rule:nonzero;"/>
                    </g>
                </g>
                <g opacity="0.7">
                    <g transform="matrix(1,0,0,1,204.965,245.726)">
                        <path d="M0,42.204C-13.413,10.156 -41.434,-16.635 -78.248,-15.325C-93.648,-14.777 -93.72,9.225 -78.248,8.675C-52.945,7.774 -32.516,26.188 -23.143,48.584C-20.643,54.558 -15.201,58.839 -8.381,56.965C-2.745,55.417 2.518,48.22 0,42.204" style="fill:white;fill-rule:nonzero;"/>
                    </g>
                </g>
                <g opacity="0.7">
                    <g transform="matrix(1,0,0,1,112.397,304.256)">
                        <path d="M0,-33.244C4.015,-19.738 14.783,-8.639 28.656,-5.304C30.45,-4.872 36.676,-4.617 37.783,-3.346C36.614,-4.688 37.991,-0.795 38.189,-0.151C40.701,8.002 48.868,12.425 55.294,17.253C60.479,21.15 68.707,18.086 71.712,12.948C75.303,6.809 72.605,0.436 67.407,-3.47C66.365,-4.253 59.803,-8.949 59.907,-9.148C60.137,-9.582 61.135,-5.425 60.781,-8.712C60.559,-10.774 59.867,-12.682 58.948,-14.54C55.849,-20.807 50.02,-24.757 43.412,-26.703C38.337,-28.197 33.189,-28.222 29.249,-30.937C26.289,-32.975 24.112,-36.363 23.143,-39.624C18.752,-54.394 -4.418,-48.105 0,-33.244" style="fill:white;fill-rule:nonzero;"/>
                    </g>
                </g>
                <g opacity="0.7">
                    <g transform="matrix(1,0,0,1,122.983,242.508)">
                        <path d="M0,13.36C-0.339,12.275 -0.664,11.194 -0.885,10.077C-1.298,7.991 -0.865,11.345 -0.986,9.223C-0.999,9.005 -1.168,5.851 -0.977,5.822C-1.561,7.062 -2.145,8.303 -2.729,9.543C-3.539,10.161 -3.549,10.224 -2.758,9.73C-2.065,9.795 -2.678,9.582 -1.968,9.32C-0.958,8.946 0.187,8.605 1.267,8.501C-0.011,8.624 1.752,8.598 2.07,8.626C5.933,8.961 0.382,8.036 4.156,8.956C10.448,10.489 17.165,6.953 18.917,0.574C20.599,-5.547 16.858,-12.646 10.536,-14.187C0.957,-16.521 -9.645,-15.187 -17.618,-9.097C-26.422,-2.373 -26.177,10.032 -23.143,19.74C-21.21,25.925 -14.783,29.881 -8.381,28.121C-2.281,26.445 1.941,19.57 0,13.36" style="fill:white;fill-rule:nonzero;"/>
                    </g>
                </g>
                <g opacity="0.7">
                    <g transform="matrix(1,0,0,1,220.337,263.037)">
                        <path d="M0,33.165C5.89,23.574 19.441,23.07 30.408,22.816C38.291,22.634 46,21.811 52.942,17.773C55.336,16.38 57.442,14.493 60.012,13.415C63.13,12.106 66.876,11.685 70.176,11.108C76.564,9.992 80.156,2.166 78.557,-3.653C76.703,-10.4 70.203,-13.154 63.796,-12.035C59.843,-11.344 55.937,-10.608 52.179,-9.171C47.933,-7.547 44.778,-5.023 40.828,-2.95C35.095,0.059 27.587,-1.326 21.292,-0.828C4.618,0.491 -11.58,6.161 -20.723,21.052C-28.827,34.25 -8.077,46.319 0,33.165" style="fill:white;fill-rule:nonzero;"/>
                    </g>
                </g>
                <g opacity="0.7">
                    <g transform="matrix(1,0,0,1,312.816,256.88)">
                        <path d="M0,26.731C8.4,19.188 23.03,25.324 32.441,28.623C38.557,30.767 45.569,26.185 47.203,20.241C49.021,13.623 44.96,7.632 38.821,5.48C19.987,-1.122 -0.762,-4.795 -16.971,9.76C-21.794,14.092 -21.38,22.322 -16.971,26.731C-12.175,31.526 -4.836,31.074 0,26.731" style="fill:white;fill-rule:nonzero;"/>
                    </g>
                </g>
                <g opacity="0.7">
                    <g transform="matrix(1,0,0,1,345.237,289.384)">
                        <path d="M0,9.201C5.668,12.492 11.11,16.114 16.334,20.072C21.358,23.877 29.971,21.03 32.752,15.767C36.094,9.443 33.81,3.411 28.447,-0.652C23.223,-4.61 17.781,-8.231 12.113,-11.522C6.682,-14.676 -1.272,-12.958 -4.305,-7.217C-7.337,-1.479 -5.799,5.834 0,9.201" style="fill:white;fill-rule:nonzero;"/>
                    </g>
                </g>
                <g opacity="0.7">
                    <g transform="matrix(1,0,0,1,388.434,241.736)">
                        <path d="M0,60.623C2.954,52.662 9.058,45.728 14.127,39.033C19.384,32.088 24.574,25.026 30.193,18.366C34.947,12.732 40.63,6.971 46.992,5.348C48.559,4.948 51.419,4.828 52.979,5.19C54.875,5.631 55.121,6.46 56.25,6.582C55.593,6.04 55.809,6.271 56.898,7.274C56.171,6.233 56.117,4.983 56.736,3.524C57.749,0.529 58.241,1.711 55.536,3.148C54.038,3.944 53.006,4.343 51.654,4.899C47.955,6.419 44.2,7.799 40.569,9.484C31.824,13.542 26.896,19.602 21.796,27.494C17.949,33.446 11.248,36.77 5.734,40.969C-1.924,46.801 -8.724,54.141 -10.663,63.893C-11.926,70.243 -8.849,76.85 -2.282,78.654C3.623,80.277 11.209,76.66 12.479,70.273C13.631,64.482 18.602,61.007 23.624,57.53C30.923,52.477 37.824,47.308 42.52,39.607C45.765,34.283 48.127,32.102 53.884,29.683C61.306,26.565 69.589,24.301 75.192,18.154C82.792,9.816 81.398,-1.815 73.868,-9.697C68.052,-15.786 59.689,-18.702 51.417,-19.016C34.597,-19.654 21.15,-8.482 11.183,3.879C4.491,12.178 -1.924,20.718 -8.342,29.23C-14.311,37.145 -19.667,44.877 -23.143,54.243C-25.398,60.32 -20.625,67.393 -14.761,69.004C-8.05,70.848 -2.264,66.722 0,60.623" style="fill:white;fill-rule:nonzero;"/>
                    </g>
                </g>
                <g opacity="0.7">
                    <g transform="matrix(1,0,0,1,381.156,472.305)">
                        <path d="M0,-150.318C3.044,-149.63 7.449,-148.6 9.548,-147.616C11.315,-146.787 11.722,-146.494 12.793,-145.539C11.888,-146.346 13.824,-143.952 13.369,-144.927C14.873,-141.705 14.516,-138.939 14.973,-135.254C15.531,-130.749 16.331,-126.486 18.417,-122.404C20.392,-118.539 24.305,-116.168 26.35,-112.624C27.809,-110.098 28.074,-106.13 28.907,-103.198C31.51,-94.032 35.429,-85.181 39.799,-76.731C47.949,-60.97 57.179,-44.829 68.477,-31.104C73.929,-24.48 80.683,-19.245 86.611,-13.092C90.973,-8.565 95.144,-2.688 93.464,3.313C89.294,18.211 112.443,24.569 116.607,9.693C121.244,-6.87 112.208,-21.952 100.574,-33.038C95.206,-38.152 89.509,-42.893 84.896,-48.744C80.511,-54.307 76.888,-60.501 73.254,-66.566C65.806,-78.996 57.956,-91.553 53.352,-105.375C50.893,-112.758 50.122,-120.893 45.3,-127.256C44.03,-128.931 40.282,-132.178 39.814,-132.934C38.327,-135.34 38.702,-137.721 38.42,-140.334C37.487,-149.001 35.556,-157.378 28.76,-163.444C22.485,-169.044 14.435,-171.641 6.38,-173.461C0.064,-174.887 -6.608,-171.532 -8.381,-165.079C-10.04,-159.043 -6.349,-151.752 0,-150.318" style="fill:white;fill-rule:nonzero;"/>
                    </g>
                </g>
                <g opacity="0.7">
                    <g transform="matrix(1,0,0,1,369.495,463.267)">
                        <path d="M0,109.895C14.907,115.833 30.773,109.548 44.776,104.077C59.583,98.291 74.425,92.131 88.594,84.9C115.927,70.95 124.956,34.586 122.786,6.062C122.294,-0.401 117.622,-5.938 110.786,-5.938C104.673,-5.938 98.291,-0.436 98.786,6.062C99.695,18.01 98.403,29.568 94.525,40.928C92.738,46.162 90.432,51.567 87.167,56.064C84.054,60.353 79.598,62.644 74.932,64.944C63.587,70.539 51.947,75.588 40.183,80.232C29.963,84.266 17.399,91.142 6.38,86.752C0.357,84.353 -6.799,89.375 -8.381,95.134C-10.258,101.965 -6.045,107.487 0,109.895" style="fill:white;fill-rule:nonzero;"/>
                    </g>
                </g>
                <g opacity="0.7">
                    <g transform="matrix(1,0,0,1,367.772,806.362)">
                        <path d="M0,-230.476C4.403,-226.027 5.369,-218.924 6.657,-212.712C8.494,-203.855 10.315,-194.994 12.005,-186.108C15.352,-168.517 17.706,-150.975 19.253,-133.143C20.053,-123.924 21.394,-114.967 24.634,-106.269C27.381,-98.897 31.168,-91.395 31.578,-83.417C32.039,-74.443 31.265,-65.608 32.79,-56.685C34.244,-48.181 37.783,-40.282 40.704,-32.221C46.711,-15.643 45.6,3.559 58.693,16.916C69.522,27.965 86.488,10.989 75.663,-0.054C71.708,-4.089 70.472,-10.32 69.274,-16.637C67.854,-24.128 66.454,-31.405 63.846,-38.601C60.97,-46.539 57.001,-54.607 55.933,-63.065C54.931,-70.998 56.152,-79.067 55.263,-87.026C54.246,-96.128 50.945,-104.148 47.777,-112.649C44.821,-120.585 43.632,-128.401 42.957,-136.795C41.455,-155.504 38.655,-174.056 35.148,-192.488C33.254,-202.444 31.279,-212.397 29.126,-222.301C27.1,-231.623 23.8,-240.546 16.971,-247.447C6.09,-258.441 -10.88,-241.47 0,-230.476" style="fill:white;fill-rule:nonzero;"/>
                    </g>
                </g>
                <g opacity="0.7">
                    <g transform="matrix(1,0,0,1,118.891,760.257)">
                        <path d="M0,-126.531C-3.943,-103.365 2.935,-81.783 7.794,-59.358C8.854,-54.468 9.787,-49.543 10.283,-44.561C10.688,-40.49 12.006,-34.579 10.364,-30.72C8.193,-25.615 5.663,-21.438 4.983,-15.817C4.188,-9.248 5.674,-3.333 8.374,2.63C11.048,8.534 19.612,9.965 24.792,6.935C30.863,3.384 31.781,-3.557 29.097,-9.483C28.186,-11.495 28.635,-13.766 29.497,-15.739C31.82,-21.055 34.32,-25.258 34.825,-31.214C35.732,-41.901 33.49,-53.499 31.323,-63.923C27.541,-82.112 19.936,-101.308 23.143,-120.151C24.229,-126.533 21.451,-133.074 14.761,-134.912C8.997,-136.496 1.093,-132.955 0,-126.531" style="fill:white;fill-rule:nonzero;"/>
                    </g>
                </g>
                <g opacity="0.7">
                    <g transform="matrix(1,0,0,1,399.994,792.023)">
                        <path d="M0,-60.01C6.589,-49.553 7.301,-36.796 9.279,-24.882C11.535,-11.299 15.091,2.007 19.764,14.954C21.962,21.048 27.929,25.148 34.525,23.336C40.41,21.718 45.117,14.7 42.906,8.574C38.033,-4.931 34.398,-18.819 32.14,-33.002C29.976,-46.597 28.226,-60.217 20.723,-72.123C12.51,-85.158 -8.266,-73.128 0,-60.01" style="fill:white;fill-rule:nonzero;"/>
                    </g>
                </g>
                <g opacity="0.7">
                    <g transform="matrix(1,0,0,1,144.213,570.752)">
                        <path d="M0,-207.295C-14.405,-200.26 -17.323,-183.703 -19.52,-169.458C-22.264,-151.665 -25.008,-133.872 -27.752,-116.079C-33.304,-80.08 -41.151,-43.555 -35.438,-7.105C-34.433,-0.697 -26.417,2.854 -20.676,1.276C-13.843,-0.602 -11.287,-7.058 -12.295,-13.485C-17.174,-44.61 -9.643,-77.063 -4.909,-107.758C-2.414,-123.933 0.081,-140.109 2.575,-156.284C3.638,-163.177 4.376,-170.222 6.103,-176.99C7.5,-182.463 8.559,-184.836 12.113,-186.572C17.936,-189.415 19.516,-197.695 16.418,-202.99C12.943,-208.932 5.844,-210.149 0,-207.295" style="fill:white;fill-rule:nonzero;"/>
                    </g>
                </g>
                <g opacity="0.7">
                    <g transform="matrix(1,0,0,1,404.857,819.809)">
                        <path d="M0,-63.481C10.226,-38.223 22.511,-13.983 37.255,8.945C40.757,14.391 47.911,16.621 53.673,13.25C59.095,10.079 61.498,2.306 57.978,-3.168C44.399,-24.285 32.569,-46.58 23.143,-69.861C20.712,-75.864 15.149,-80.102 8.381,-78.242C2.687,-76.678 -2.447,-69.524 0,-63.481" style="fill:white;fill-rule:nonzero;"/>
                    </g>
                </g>
                <g opacity="0.7">
                    <g transform="matrix(1,0,0,1,443.217,308.519)">
                        <path d="M0,-88.61C-17.489,-90.218 -35.051,-81.198 -46.313,-68.158C-58.258,-54.326 -64.419,-37.084 -69.131,-19.687C-73.174,-4.761 -50.028,1.608 -45.988,-13.307C-39.927,-35.682 -28.128,-67.197 0,-64.61C6.463,-64.016 12,-70.551 12,-76.61C12,-83.595 6.481,-88.014 0,-88.61" style="fill:white;fill-rule:nonzero;"/>
                    </g>
                </g>
                <g opacity="0.7">
                    <g transform="matrix(1,0,0,1,231.176,252.929)">
                        <path d="M0,33.054C7.666,29.599 16.551,29.053 24.797,28.178C34.707,27.127 44.71,26.001 53.972,22.113C65.113,17.436 65.477,3.554 53.972,-1.029C37.05,-7.77 16.948,0.227 7.758,15.482C-0.232,28.745 20.512,40.824 28.481,27.595C32.437,21.029 40.069,19.117 47.591,22.113L47.591,-1.029C38.651,2.724 29.305,3.672 19.767,4.704C8.598,5.914 -1.819,7.691 -12.113,12.331C-18.022,14.994 -19.444,23.576 -16.418,28.749C-12.863,34.828 -5.931,35.727 0,33.054" style="fill:white;fill-rule:nonzero;"/>
                    </g>
                </g>
            </g>
            <g id="paw" transform="matrix(4.17204,0,0,3.75073,-466.377,-782.603)">
                <g transform="matrix(-0.740729,0.671804,0.671804,0.740729,452.678,671.517)">
                    <path d="M37.087,-45.068C37.087,-45.068 8.851,-51.652 7.879,-28.506C7.879,-28.506 9.145,5.219 37.087,14.504C37.087,14.504 50.326,16.637 62.275,-8.34L37.087,-45.068Z" style="fill:rgb(255,250,82);fill-rule:nonzero;"/>
                </g>
                <g transform="matrix(1,0,0,1,405.604,674.905)">
                    <path d="M0,-21.962C0,-21.962 7.007,3.892 28.847,-9.777C28.847,-9.777 19.726,-25.854 11.819,-24.876C11.819,-24.876 3.277,-24.284 0,-21.962" style="fill:rgb(255,85,64);fill-rule:nonzero;"/>
                </g>
                <g transform="matrix(1,0,0,1,421.233,648.57)">
                    <path d="M0,65.576C-3.025,65.576 -5.821,65.768 -9.628,62.722C-14.182,59.079 -15.72,53.095 -15.82,44.938C-15.84,43.349 -13.374,43.277 -13.354,44.867C-13.275,51.218 -11.642,55.713 -8.499,58.227C-4.31,61.577 1.482,62.112 1.538,62.099L1.903,62.046C16.687,60.847 17.171,42.68 16.967,37.644C16.321,21.693 6.582,3.097 -6.363,3.097C-23.948,3.097 -32.294,32.781 -32.376,33.073C-32.808,34.602 -35.059,33.867 -34.629,32.337C-34.247,30.976 -28.305,-0.192 -6.363,-0.192C10.083,-0.192 19.485,18.457 20.252,37.411C20.923,53.992 16.479,64.157 3.347,65.304C2.87,65.39 1.644,65.576 0,65.576" style="fill-rule:nonzero;"/>
                </g>
                <g transform="matrix(0.98117,0.193146,0.193146,-0.98117,422.073,708.706)">
                    <path d="M1.682,-0.716C5.011,4.796 1.138,15.423 1.077,15.497C-0.022,16.824 0.582,19.068 1.682,17.742C2.048,17.3 10.578,6.814 4.93,-2.538C4.456,-3.321 0.791,-2.191 1.682,-0.716" style="fill-rule:nonzero;"/>
                </g>
            </g>
            <g id="colour" transform="matrix(4.17204,0,0,3.75073,-466.377,-782.603)">
                <g transform="matrix(1,0,0,1,146.66,226.161)">
                    <path d="M0,571.124C0,571.124 -14.067,543.969 -18.9,469.886L-25.934,350.935L-24.588,273.928C-24.588,273.928 -26.422,240.989 -10.239,168.187C-10.239,168.187 -3.384,123.07 23.417,83.078C23.417,83.078 -14.716,65.742 -20.284,55.454C-20.284,55.454 -44.573,29.715 -39.67,14.857C-34.767,0 1.917,12.828 1.917,12.828C1.917,12.828 30.138,27.726 48.053,64.527C48.053,64.527 93.026,28.412 141.75,30.995L130.314,49.472C130.314,49.472 159.273,33.775 199.24,37.094L188.097,49.472L216.177,46.355C216.177,46.355 201.766,54.973 204.737,59.727L227.356,68.807L239.662,45.167L262.904,15.487L282.994,3.181L298.336,2.689L307.993,8.011L310.218,18.802L297.448,43.218L277.242,59.727L251.822,84.506L268.179,102.892L275.149,118.554L280.363,135.46L286.543,162.393L292.835,182.249L306.794,202.524L332.3,221.886L344.469,251.552L344.469,262.901L332.398,288.544L311.408,311.911L288.189,327.105C288.189,327.105 260.176,338.996 240.692,336.618L243.592,364.789L251.209,412.966L264.593,476.916L284.417,544.855L293.882,571.124L0,571.124Z" style="fill:rgb(255,250,82);fill-rule:nonzero;"/>
                </g>
                <g transform="matrix(1,0,0,1,256.977,586.856)">
                    <path d="M0,-103.881C0,-103.881 8.469,-72.68 63.516,-43.708L63.516,-40.365C63.516,-40.365 60.192,-35.016 58.511,-24.319L55.27,-5.821L38.778,0L25.24,0C25.24,0 -8.023,-22.09 -14.04,-57.748C-14.04,-57.748 -14.486,-92.069 -8.023,-103.881L0,-103.881Z" style="fill:rgb(252,156,154);fill-rule:nonzero;"/>
                </g>
                <g transform="matrix(1,0,0,1,270.275,577.952)">
                    <path d="M0,-47.581C0,-47.581 -15.6,-43.867 -11.44,-12.22L15.6,10.549C15.6,10.549 53.784,-58.13 0,-47.581" style="fill:rgb(249,143,143);fill-rule:nonzero;"/>
                </g>
                <g transform="matrix(1,0,0,1,269.383,591.429)">
                    <path d="M0,-15.297C0,-15.297 15.6,-37.441 30.607,-27.855C30.607,-27.855 49.624,-34.463 59.282,-18.269C59.282,-18.269 80.974,15.161 52.447,21.104C52.447,21.104 36.995,22.144 30.755,5.206C30.755,5.206 4.012,-7.571 0,-15.297" style="fill:rgb(255,85,64);fill-rule:nonzero;"/>
                </g>
                <g transform="matrix(-0.920599,-0.390509,-0.390509,0.920599,180.432,381.192)">
                    <path d="M-89.801,-65.819C-89.801,-65.819 -13.953,-114.499 -3.015,-33.754C7.922,46.99 -89.801,44.998 -89.801,44.998C-89.801,44.998 -134.339,47.805 -130.895,-10.707C-130.895,-10.707 -132.145,-44.953 -89.801,-65.819" style="fill:rgb(255,85,64);fill-rule:nonzero;"/>
                </g>
                <g transform="matrix(1,0,0,1,284.612,707.176)">
                    <path d="M0,12.926C0,12.926 10.92,-20.058 35.212,-1.56C35.212,-1.56 40.784,25.096 21.618,29.931C21.618,29.931 0.669,32.984 0,12.926" style="fill:rgb(255,85,64);fill-rule:nonzero;"/>
                </g>
                <g transform="matrix(-0.871435,0.490512,0.490512,0.871435,459.43,254.517)">
                    <path d="M24.034,-39.728C24.034,-39.728 40.43,-29.228 31.841,-18.588C31.841,-18.588 53.362,-4.436 24.034,3.889C24.034,3.889 -0.82,4.971 -5.043,-17.654C-5.043,-17.654 -3.657,-37.582 24.034,-39.728" style="fill:rgb(255,85,64);fill-rule:nonzero;"/>
                </g>
                <g transform="matrix(1,0,0,1,402.804,763.36)">
                    <path d="M0,-94.243C0,-94.243 -1.783,-124.975 -24.366,-123.786C-46.95,-122.597 -65.67,-96.908 -62.105,-51.065C-58.539,-5.223 -38.63,30.732 -38.63,30.732L38.746,30.732C38.746,30.732 19.523,-9.303 13.625,-36.829L0,-94.243Z" style="fill:rgb(255,252,215);fill-rule:nonzero;"/>
                </g>
                <g transform="matrix(1,0,0,1,129.128,312.708)">
                    <path d="M0,-60.322C0,-60.322 -6.834,-34.767 62.996,0C62.996,0 28.824,-52.893 0,-60.322" style="fill:rgb(249,220,220);fill-rule:nonzero;"/>
                </g>
                <g transform="matrix(1,0,0,1,266.115,559.777)">
                    <path d="M0,-59.084C0,-59.084 -6.026,-45.155 2.336,-40.029C2.336,-40.029 10.809,-36.575 18.832,-38.358C18.832,-38.358 14.152,-29.777 20.281,-25.432C20.281,-25.432 28.09,-22.812 36.387,-26.629C36.387,-26.629 34.098,-17.409 40.673,-11.391C40.673,-11.391 44.35,-9.274 55.159,-15.514C55.159,-15.514 53.153,-5.82 59.839,-2.477C59.839,-2.477 69.09,0 75.83,-6.308L47.47,-21.754L23.095,-36.748L4.569,-52.844L0,-59.084Z" style="fill:rgb(255,255,220);fill-rule:nonzero;"/>
                </g>
                <g transform="matrix(1,0,0,1,311.579,586.821)">
                    <path d="M0,1.8C1.158,1.8 1.16,0 0,0C-1.158,0 -1.16,1.8 0,1.8" style="fill:rgb(221,59,47);fill-rule:nonzero;"/>
                </g>
                <g transform="matrix(1,0,0,1,316.482,583.367)">
                    <path d="M0,1.8C1.158,1.8 1.16,0 0,0C-1.158,0 -1.16,1.8 0,1.8" style="fill:rgb(221,59,47);fill-rule:nonzero;"/>
                </g>
                <g transform="matrix(1,0,0,1,315.702,587.601)">
                    <path d="M0,1.8C1.158,1.8 1.16,0 0,0C-1.158,0 -1.16,1.8 0,1.8" style="fill:rgb(221,59,47);fill-rule:nonzero;"/>
                </g>
                <g transform="matrix(1,0,0,1,324.282,592.95)">
                    <path d="M0,1.8C1.158,1.8 1.16,0 0,0C-1.158,0 -1.16,1.8 0,1.8" style="fill:rgb(221,59,47);fill-rule:nonzero;"/>
                </g>
                <g transform="matrix(1,0,0,1,326.734,583.478)">
                    <path d="M0,1.8C1.158,1.8 1.16,0 0,0C-1.158,0 -1.16,1.8 0,1.8" style="fill:rgb(221,59,47);fill-rule:nonzero;"/>
                </g>
                <g transform="matrix(1,0,0,1,315.59,597.741)">
                    <path d="M0,1.8C1.158,1.8 1.16,0 0,0C-1.158,0 -1.16,1.8 0,1.8" style="fill:rgb(221,59,47);fill-rule:nonzero;"/>
                </g>
                <g transform="matrix(1,0,0,1,317.485,591.055)">
                    <path d="M0,1.8C1.158,1.8 1.16,0 0,0C-1.158,0 -1.16,1.8 0,1.8" style="fill:rgb(221,59,47);fill-rule:nonzero;"/>
                </g>
                <g transform="matrix(1,0,0,1,310.576,592.727)">
                    <path d="M0,1.8C1.158,1.8 1.16,0 0,0C-1.158,0 -1.16,1.8 0,1.8" style="fill:rgb(221,59,47);fill-rule:nonzero;"/>
                </g>
                <g transform="matrix(1,0,0,1,323.168,598.187)">
                    <path d="M0,1.8C1.158,1.8 1.16,0 0,0C-1.158,0 -1.16,1.8 0,1.8" style="fill:rgb(221,59,47);fill-rule:nonzero;"/>
                </g>
                <g transform="matrix(1,0,0,1,323.056,587.824)">
                    <path d="M0,1.8C1.158,1.8 1.16,0 0,0C-1.158,0 -1.16,1.8 0,1.8" style="fill:rgb(221,59,47);fill-rule:nonzero;"/>
                </g>
                <g transform="matrix(1,0,0,1,318.042,575.678)">
                    <path d="M0,1.8C1.158,1.8 1.16,0 0,0C-1.158,0 -1.16,1.8 0,1.8" style="fill:rgb(221,59,47);fill-rule:nonzero;"/>
                </g>
                <g transform="matrix(1,0,0,1,310.353,579.132)">
                    <path d="M0,1.8C1.158,1.8 1.16,0 0,0C-1.158,0 -1.16,1.8 0,1.8" style="fill:rgb(221,59,47);fill-rule:nonzero;"/>
                </g>
                <g transform="matrix(1,0,0,1,307.79,581.584)">
                    <path d="M0,1.8C1.158,1.8 1.16,0 0,0C-1.158,0 -1.16,1.8 0,1.8" style="fill:rgb(221,59,47);fill-rule:nonzero;"/>
                </g>
                <g transform="matrix(1,0,0,1,305.227,584.815)">
                    <path d="M0,1.8C1.158,1.8 1.16,0 0,0C-1.158,0 -1.16,1.8 0,1.8" style="fill:rgb(221,59,47);fill-rule:nonzero;"/>
                </g>
                <g transform="matrix(1,0,0,1,306.23,590.61)">
                    <path d="M0,1.8C1.158,1.8 1.16,0 0,0C-1.158,0 -1.16,1.8 0,1.8" style="fill:rgb(221,59,47);fill-rule:nonzero;"/>
                </g>
                <g transform="matrix(1,0,0,1,312.916,602.644)">
                    <path d="M0,1.8C1.158,1.8 1.16,0 0,0C-1.158,0 -1.16,1.8 0,1.8" style="fill:rgb(221,59,47);fill-rule:nonzero;"/>
                </g>
                <g transform="matrix(1,0,0,1,319.156,606.21)">
                    <path d="M0,1.8L0.111,1.8C1.27,1.8 1.272,0 0.111,0L0,0C-1.158,0 -1.16,1.8 0,1.8" style="fill:rgb(221,59,47);fill-rule:nonzero;"/>
                </g>
                <g transform="matrix(1,0,0,1,328.962,602.867)">
                    <path d="M0,1.8C1.158,1.8 1.16,0 0,0C-1.158,0 -1.16,1.8 0,1.8" style="fill:rgb(221,59,47);fill-rule:nonzero;"/>
                </g>
                <g transform="matrix(1,0,0,1,330.634,597.518)">
                    <path d="M0,1.8C1.158,1.8 1.16,0 0,0C-1.158,0 -1.16,1.8 0,1.8" style="fill:rgb(221,59,47);fill-rule:nonzero;"/>
                </g>
                <g transform="matrix(1,0,0,1,324.171,576.458)">
                    <path d="M0,1.8C1.158,1.8 1.16,0 0,0C-1.158,0 -1.16,1.8 0,1.8" style="fill:rgb(221,59,47);fill-rule:nonzero;"/>
                </g>
                <g transform="matrix(1,0,0,1,323.168,580.803)">
                    <path d="M0,1.8C1.158,1.8 1.16,0 0,0C-1.158,0 -1.16,1.8 0,1.8" style="fill:rgb(221,59,47);fill-rule:nonzero;"/>
                </g>
                <g transform="matrix(1,0,0,1,302.98,575.678)">
                    <path d="M0,1.8C1.158,1.8 1.16,0 0,0C-1.158,0 -1.16,1.8 0,1.8" style="fill:rgb(221,59,47);fill-rule:nonzero;"/>
                </g>
                <g transform="matrix(1,0,0,1,301.996,578.909)">
                    <path d="M0,1.8C1.158,1.8 1.16,0 0,0C-1.158,0 -1.16,1.8 0,1.8" style="fill:rgb(221,59,47);fill-rule:nonzero;"/>
                </g>
                <g transform="matrix(1,0,0,1,298.207,574.826)">
                    <path d="M0,12.03C0,12.03 -16.142,4.987 -13.531,-10.448C-13.531,-10.448 -24.775,-7.609 -28.824,1.751C-28.824,1.751 -13.706,16.795 1.226,22.478L1.226,20.436L0,12.03Z" style="fill:rgb(247,45,40);fill-rule:nonzero;"/>
                </g>
                <g transform="matrix(1,0,0,1,453.418,505.078)">
                    <path d="M0,27.881C10.655,18.282 9.756,1.572 9.754,1.44C9.742,0.211 10.726,-0.798 11.955,-0.814C13.18,-0.824 13.301,0.151 13.319,1.379C13.329,1.997 13.403,16.635 1.201,27.627C0.695,28.083 -0.914,28.705 0,27.881" style="fill:rgb(234,226,71);fill-rule:nonzero;"/>
                </g>
                <g transform="matrix(1,0,0,1,323.652,632.294)">
                    <path d="M0,-18.413C0,-18.413 -8.413,-0.635 0.238,-0.317C8.889,0 0,-18.413 0,-18.413" style="fill:rgb(170,247,245);fill-rule:nonzero;"/>
                </g>
            </g>
            <g id="shadows" transform="matrix(4.17204,0,0,3.75073,-466.377,-782.603)">
                <g transform="matrix(0.707107,0.707107,0.707107,-0.707107,196.596,260.652)">
                    <path d="M28.814,-24.632C28.814,-24.632 24.821,26.636 64.113,70.551C64.113,70.551 40.536,50.631 28.814,16.131C28.814,16.131 18.587,-18.109 20.128,-21.581L28.814,-24.632Z" style="fill:rgb(234,226,71);fill-rule:nonzero;"/>
                </g>
                <g transform="matrix(1,0,0,1,107.54,227.761)">
                    <path d="M0,24.625C0,24.625 4.916,-12.097 70.305,36.722C70.305,36.722 37.975,-3.852 9.724,6.375C9.724,6.375 -2.57,8.579 0,24.625" style="fill:rgb(234,226,71);fill-rule:nonzero;"/>
                </g>
                <g transform="matrix(0.233723,0.972303,0.972303,-0.233723,289.496,236.249)">
                    <path d="M38.709,-28.157C38.709,-28.157 36.692,16.073 44.064,41.799L38.709,48.399C38.709,48.399 31.456,31.348 33.988,3.081C33.988,3.081 37.12,-26.012 38.709,-28.157" style="fill:rgb(234,226,71);fill-rule:nonzero;"/>
                </g>
                <g transform="matrix(-0.703801,0.710397,0.710397,0.703801,402.458,298.007)">
                    <path d="M12.665,-23.955C12.665,-23.955 5.322,-12.457 9.145,6.132L12.665,2.578L17.029,-21.318L12.665,-23.955Z" style="fill:rgb(234,226,71);fill-rule:nonzero;"/>
                </g>
                <g transform="matrix(1,0,0,1,386.55,549.712)">
                    <path d="M0,23.003C0,23.003 -34.422,16.481 -57.588,0C-57.588,0 -15.477,13.65 0.802,13.068L0,23.003Z" style="fill:rgb(234,226,71);fill-rule:nonzero;"/>
                </g>
                <g transform="matrix(1,0,0,1,375.329,431.865)">
                    <path d="M0,-22.286C0,-22.286 3.109,-3.863 23.018,-2.377C23.018,-2.377 39.452,-3.148 42.973,-16.58C42.973,-16.58 21.554,0 0,-22.286" style="fill:rgb(226,214,71);fill-rule:nonzero;"/>
                </g>
                <g transform="matrix(1,0,0,1,380.815,438.551)">
                    <path d="M0,-22.583C0,-22.583 15.898,6.389 43.533,-28.972C43.533,-28.972 25.852,-6.091 0,-22.583" style="fill:rgb(234,226,71);fill-rule:nonzero;"/>
                </g>
                <g transform="matrix(1,0,0,1,280.824,434.168)">
                    <path d="M0,-45.422C0,-45.422 4.939,-9.361 -25.5,-4.68C-55.939,0 -63.741,-26.254 -63.741,-26.254L0,-45.422Z" style="fill:rgb(216,79,72);fill-rule:nonzero;"/>
                </g>
                <g transform="matrix(1,0,0,1,423.452,249.056)">
                    <path d="M0,-19.207C0,-19.207 35.217,-21.259 28.531,8.159C28.531,8.159 40.343,-5.013 30.314,-17.371C30.314,-17.371 14.566,-27.366 0,-19.207" style="fill:rgb(216,79,72);fill-rule:nonzero;"/>
                </g>
                <g transform="matrix(1,0,0,1,123.074,806.275)">
                    <path d="M0,-283.856C0,-283.856 -2.266,-75.476 46.467,0L18.769,-2.488L18.769,-15.452C18.769,-15.452 4.752,-53.377 6.146,-91.913C6.146,-91.913 -1.553,-148.253 -0.016,-167.296C-0.016,-167.296 -6.351,-275.91 0,-283.856" style="fill:rgb(234,226,71);fill-rule:nonzero;"/>
                </g>
                <g transform="matrix(1,0,0,1,273.245,663.94)">
                    <path d="M0,23.322C0,23.322 11.293,0 40.117,19.612C40.117,19.612 27.544,3.156 15.751,7.429C15.751,7.429 0.295,12.175 0,23.322" style="fill:rgb(234,226,71);fill-rule:nonzero;"/>
                </g>
                <g transform="matrix(1,0,0,1,228.996,461.754)">
                    <path d="M0,10.749C0.147,10.407 3.702,2.341 11.841,0.041C17.548,-1.571 23.932,0.07 30.816,4.917C31.61,5.477 31.482,6.67 30.688,6.11C24.713,1.903 17.239,0.726 12.604,2.034C6.061,3.882 1.073,11.665 1.044,11.734C0.791,12.32 -0.384,11.642 0,10.749" style="fill:rgb(234,226,71);fill-rule:nonzero;"/>
                </g>
            </g>
            <g id="outline" transform="matrix(4.17204,0,0,3.75073,-466.377,-782.603)">
                <g transform="matrix(1,0,0,1,331.629,499.906)">
                    <path d="M0,59.219C-3.311,59.219 -6.05,59.265 -8.199,57.575C-11.543,54.943 -11.74,49.105 -12.03,45.895C-16.908,49.232 -21.786,50.967 -25.029,49.372C-29.475,47.185 -30.594,39.273 -30.843,35.414C-38.116,37.581 -43.43,38.001 -46.663,34.892C-50.384,31.315 -50.109,27.098 -49.47,23.364C-57.393,24.134 -63.12,22.494 -66.519,18.479C-72.387,11.545 -66.892,0.424 -66.731,-0.046L-64.297,1.397L-64.296,1.394C-64.327,1.485 -69.132,11.508 -64.891,16.502C-62.123,19.759 -54.898,21.635 -46.934,20.317L-46.232,20.526C-46.994,22.91 -48.323,29.728 -45.352,32.575C-43.061,34.769 -36.387,35.472 -29.424,32.919L-28.214,34.234C-28.333,36.635 -29.127,44.691 -23.95,47.157C-20.273,49.483 -15.201,46.49 -10.284,42.277L-8.416,43.428C-8.426,43.497 -10.403,51.777 -6.322,54.972C-3.158,57.452 4.019,57.617 11.631,52.774L13.346,55.106C8.192,57.253 3.733,59.219 0,59.219" style="fill-rule:nonzero;"/>
                </g>
                <g transform="matrix(0,-1,-1,0,246.16,357.695)">
                    <path d="M-33.533,-33.533C-50.847,-33.533 -64.882,-18.52 -64.882,0C-64.882,18.52 -50.847,33.533 -33.533,33.533C-16.219,33.533 -2.184,18.52 -2.184,0C-2.184,-18.52 -16.219,-33.533 -33.533,-33.533" style="fill:white;fill-rule:nonzero;"/>
                </g>
                <g transform="matrix(1,0,0,1,245.269,420.795)">
                    <path d="M0,-59.133C-17.016,-59.133 -31.75,-45.378 -31.75,-29.567C-31.75,-13.755 -16.124,0.892 0.891,0.892C17.907,0.892 33.533,-13.755 33.533,-29.567C33.533,-45.378 17.016,-59.133 0,-59.133M0.891,4.457C-19.074,4.457 -35.316,-10.806 -35.316,-29.567C-35.316,-48.327 -19.074,-63.59 0.891,-63.59C20.856,-63.59 37.098,-48.327 37.098,-29.567C37.098,-10.806 20.856,4.457 0.891,4.457" style="fill-rule:nonzero;"/>
                </g>
                <g transform="matrix(0,-1,-1,0,399.852,363.934)">
                    <path d="M-28.378,-28.378C-44.215,-28.378 -57.053,-15.673 -57.053,0C-57.053,15.673 -44.215,28.378 -28.378,28.378C-12.541,28.378 0.297,15.673 0.297,0C0.297,-15.673 -12.541,-28.378 -28.378,-28.378" style="fill:white;fill-rule:nonzero;"/>
                </g>
                <g transform="matrix(1,0,0,1,400.743,419.205)">
                    <path d="M0,-53.785C-14.174,-53.785 -29.27,-41.23 -29.27,-26.893C-29.27,-12.556 -15.065,0.891 -0.891,0.891C13.281,0.891 26.595,-12.556 26.595,-26.893C26.595,-41.23 14.173,-53.785 0,-53.785M-0.891,4.457C-18.014,4.457 -31.944,-9.607 -31.944,-26.893C-31.944,-44.179 -18.014,-58.242 -0.891,-58.242C16.231,-58.242 30.161,-44.179 30.161,-26.893C30.161,-9.607 16.231,4.457 -0.891,4.457" style="fill-rule:nonzero;"/>
                </g>
                <g transform="matrix(0,1,1,0,236.548,382.166)">
                    <path d="M6.388,-6.388C3.188,-6.388 0.595,-3.528 0.595,0.001C0.595,3.529 3.188,6.388 6.388,6.388C9.589,6.388 12.182,3.529 12.182,0.001C12.182,-3.528 9.589,-6.388 6.388,-6.388" style="fill:white;fill-rule:nonzero;"/>
                </g>
                <g transform="matrix(1,0,0,1,236.548,391.674)">
                    <path d="M0,-6.24C-2.048,-6.24 -3.715,-4.84 -3.715,-3.12C-3.715,-1.4 -2.048,0 0,0C2.048,0 3.714,-1.4 3.714,-3.12C3.714,-4.84 2.048,-6.24 0,-6.24M0,5.349C-4.997,5.349 -9.063,1.55 -9.063,-3.12C-9.063,-7.79 -4.997,-11.589 0,-11.589C4.997,-11.589 9.063,-7.79 9.063,-3.12C9.063,1.55 4.997,5.349 0,5.349" style="fill-rule:nonzero;"/>
                </g>
                <g transform="matrix(0,-1,-1,0,409.564,378.302)">
                    <path d="M-5.275,-5.275C-8.188,-5.275 -10.549,-2.914 -10.549,-0C-10.549,2.912 -8.188,5.275 -5.275,5.275C-2.362,5.275 -0,2.912 -0,-0C-0,-2.914 -2.362,-5.275 -5.275,-5.275" style="fill:white;fill-rule:nonzero;"/>
                </g>
                <g transform="matrix(1,0,0,1,409.565,386.176)">
                    <path d="M0,-5.2C-1.434,-5.2 -2.6,-4.033 -2.6,-2.6C-2.6,-1.166 -1.434,0 0,0C1.433,0 2.6,-1.166 2.6,-2.6C2.6,-4.033 1.433,-5.2 0,-5.2M0,5.349C-4.383,5.349 -7.949,1.783 -7.949,-2.6C-7.949,-6.983 -4.383,-10.549 0,-10.549C4.382,-10.549 7.948,-6.983 7.948,-2.6C7.948,1.783 4.382,5.349 0,5.349" style="fill-rule:nonzero;"/>
                </g>
                <g transform="matrix(1,0,0,1,185.695,229.464)">
                    <path d="M0,90.792C-0.182,90.69 -19.072,81.481 -32.716,73.565C-47.898,68.813 -60.824,55.129 -61.371,54.544L-61.448,54.458C-78.837,34.434 -85.018,19.973 -80.345,10.25C-75.289,-0.271 -59.631,0.235 -58.966,0.265L-58.849,0.272C-36.92,1.988 -16.522,15.688 0.141,39.89C12.556,57.924 18.497,75.197 18.744,75.924C19.298,77.555 16.957,79.563 16.402,77.932C16.172,77.257 -11.614,8.57 -60.162,4.715C-63.592,4.598 -72.92,5.541 -75.619,11.183C-80.088,20.528 -67.207,41.247 -58.563,51.208C-57.834,51.972 -43.909,66.328 -30.552,70.376L-30.204,70.481L-29.891,70.663C-16.251,78.583 1.088,88.813 1.27,88.915C2.773,89.758 0.483,91.063 0,90.792" style="fill-rule:nonzero;"/>
                </g>
                <g transform="matrix(1,0,0,1,140.207,310.178)">
                    <path d="M0,483.485C-6.897,468.495 -16.326,421.924 -22.071,285.194C-26.696,175.115 -11.98,103.955 -0.316,63.642C12.437,19.568 27.148,0.967 27.73,0.235C28.957,-1.307 32.755,2.238 31.532,3.779C31.263,4.124 15.955,23.516 3.663,66.31C-7.753,106.052 -21.294,176.235 -16.728,284.895C-10.732,427.612 -2.515,468.709 2.913,480.504C3.736,482.293 0.601,484.792 0,483.485" style="fill-rule:nonzero;"/>
                </g>
                <g transform="matrix(1,0,0,1,192.72,243.384)">
                    <path d="M0,69.991C-0.704,69.991 -1.396,69.659 -1.829,69.038C-46.474,5.095 -72.566,8.34 -72.818,8.404C-74.006,8.727 -74.275,7.095 -73.087,6.775C-71.944,6.465 -45.488,0 0.934,66.487C1.638,67.496 2.283,68.885 1.274,69.59C0.885,69.861 0.44,69.991 0,69.991" style="fill-rule:nonzero;"/>
                </g>
                <g transform="matrix(1,0,0,1,197.029,250.19)">
                    <path d="M0,41.046C-0.868,41.046 -2.462,39.39 -1.167,38.255C0.494,36.8 44.564,0 98.737,4.06C98.737,4.06 85.132,18.181 82.664,23.143C97.436,17.629 129.068,7.684 151.418,11.34C151.418,11.34 143.076,20.396 142.042,23.349C147.797,22.025 158.067,21.892 166.153,22.791C167.866,22.981 167.187,25.621 165.464,25.427C150.426,23.757 136.892,29.625 136.757,29.684L131.098,32.178C131.098,32.178 143.513,16.242 147.461,12.717C117.967,11.186 77.481,29.922 77.11,30.098L69.728,33.601C69.728,33.601 87.107,11.457 92.528,6.41C92.271,6.408 92.012,6.407 91.756,6.407C44.428,6.407 2.42,39.062 2.053,39.383C1.461,39.9 0.729,41.046 0,41.046" style="fill-rule:nonzero;"/>
                </g>
                <g transform="matrix(1,0,0,1,391.241,283.345)">
                    <path d="M0,281.659C-1.712,281.659 -3.376,281.621 -4.991,281.549C-29.248,280.485 -46.96,273.247 -48.8,272.373C-53.545,270.566 -126.201,240.41 -135.883,200.68C-136.291,199.005 -132.903,198.419 -132.495,200.093C-123.486,237.059 -46.046,268.076 -45.276,268.367L-45.016,268.479C-44.843,268.563 -27.153,275.22 -3.294,276.217C28.44,277.537 54.366,265.75 76.083,241.169C93.317,221.663 100.425,203.743 97.208,187.908C92.957,166.98 71.648,156.563 71.433,156.46L71.157,156.311C45.283,140.602 41.405,109.727 41.176,108.42C33.962,69.522 25.095,51.435 24.564,50.378C5.409,16.841 -40.707,2.121 -41.163,2.012C-42.838,1.611 -42.283,0 -40.607,0.399C-38.642,0.867 7.748,11.378 28.24,47.354L28.301,47.467C28.692,48.224 37.96,66.472 45.535,107.314C45.591,107.634 50.969,136.662 74.271,150.902C76.537,152.013 98.555,163.361 103.312,186.606C106.968,204.477 97.598,224.225 78.977,245.301C52.222,275.584 22.922,281.659 0,281.659" style="fill-rule:nonzero;"/>
                </g>
                <g transform="matrix(1,0,0,1,302.351,481.497)">
                    <path d="M0,119.093C-28.911,104.528 -49.193,86.18 -56.764,62.802C-67.209,30.555 -54.773,2.484 -54.162,1.305C-53.37,-0.226 -51.293,2.388 -51.293,2.388C-51.43,2.655 -64.037,30.336 -54.368,60.067C-47.312,81.765 -28.983,100.641 -1.65,114.411C-0.111,115.187 0.45,119.319 0,119.093" style="fill-rule:nonzero;"/>
                </g>
                <g transform="matrix(0.125353,0.992112,0.992112,-0.125353,245.204,467.572)">
                    <path d="M20.359,-12.315C19.808,-11.874 9.502,-2.456 18.731,21.931C19.168,23.084 20.791,22.726 20.359,21.574C12.261,0.183 20.929,-11.175 21.039,-11.263C21.668,-11.765 21.322,-13.083 20.359,-12.315" style="fill-rule:nonzero;"/>
                </g>
                <g transform="matrix(0.979405,-0.201903,-0.201903,-0.979405,457.675,783.728)">
                    <path d="M-23.341,-2.277C-41.661,97.356 -27.063,227.315 -26.931,228.619C-26.758,230.333 -23.169,230.245 -23.341,228.531C-23.473,227.234 -37.108,97.959 -18.951,-0.788C-18.639,-2.483 -23.105,-3.564 -23.341,-2.277" style="fill-rule:nonzero;"/>
                </g>
                <g transform="matrix(1,0,0,1,397.718,227.465)">
                    <path d="M0,81.4C8.138,69.895 21.715,56.618 22.366,56.058L22.539,55.92C35.425,46.335 58.721,28.159 58.025,14.115C57.781,9.193 52.035,4.993 51.427,4.562C43.871,1.203 36.426,1.081 28.674,4.191C1.13,15.237 -20.203,65.791 -20.397,66.274C-21.041,67.873 -23.264,66.434 -22.621,64.836C-22.413,64.321 -18.338,50.278 -9.681,36.382C2.108,17.463 14.527,5.285 27.234,0.185C36.593,-3.571 45.97,-3.379 55.106,0.756L55.424,0.923C55.694,1.085 62.037,4.989 62.475,13.806C63.114,26.708 49.179,41.647 24.573,59.966C23.361,61.019 9.823,73.647 2.42,84.112C1.812,84.971 -0.995,82.807 0,81.4" style="fill-rule:nonzero;"/>
                </g>
                <g transform="matrix(0.928812,0.37055,0.37055,-0.928812,312.862,560.694)">
                    <path d="M3.475,-0.352C-2.65,8.701 0.896,18.932 1.007,19.47C1.359,21.156 3.823,19.393 3.475,17.708C3.439,17.533 0.877,5.833 5.493,-0.99C6.46,-2.417 4.312,-1.588 3.475,-0.352" style="fill-rule:nonzero;"/>
                </g>
                <g transform="matrix(1,0,0,1,319.293,557.63)">
                    <path d="M0,56.321C-4.217,56.321 -8.02,55.091 -11.349,52.642C-21.626,45.086 -21.667,29.432 -21.74,28.731C-21.892,27.262 -20.138,26.711 -19.986,28.179C-19.97,28.326 -18.319,43.985 -9.951,50.124C-6.636,52.558 0.807,53.292 5.466,52.376C10.452,50.91 13.518,48.393 14.837,44.682C18.635,34 7.143,14.547 7.026,14.379C-1.362,1.8 -15.886,6.202 -16.386,6.434C-17.722,7.053 -19.104,4.9 -17.773,4.269C-12.117,1.589 0.896,0 9.666,13.154C10.177,13.89 22.806,32.305 18.097,45.573C16.179,50.978 11.794,53.814 5.064,55.762L4.85,55.814C3.179,56.152 1.561,56.321 0,56.321" style="fill-rule:nonzero;"/>
                </g>
                <g transform="matrix(1,0,0,1,268.695,561.107)">
                    <path d="M0,12.848C8.595,1.946 17.004,-3.09 25.008,-2.099C35.847,-0.764 40.416,12.011 40.643,12.515C41.249,13.863 39.939,14.274 39.332,12.93C39.256,12.763 32.145,2.369 24.331,1.424C18.396,0.716 8.77,6.078 1.526,15.268C0.999,15.938 -0.915,14.008 0,12.848" style="fill-rule:nonzero;"/>
                </g>
                <g transform="matrix(1,0,0,1,300.647,668.084)">
                    <path d="M0,71.082C-3.279,71.082 -6.309,71.29 -10.436,67.989C-15.373,64.04 -17.04,57.553 -17.149,48.711C-17.17,46.988 -14.497,46.911 -14.475,48.635C-14.39,55.518 -12.619,60.391 -9.212,63.116C-4.672,66.747 1.606,67.327 1.667,67.313L2.062,67.256C18.088,65.956 18.613,46.263 18.391,40.805C17.691,23.515 7.134,3.358 -6.897,3.358C-25.959,3.358 -35.006,35.534 -35.095,35.85C-35.562,37.507 -38.002,36.711 -37.536,35.052C-37.122,33.577 -30.681,-0.208 -6.897,-0.208C10.93,-0.208 21.121,20.007 21.952,40.552C22.68,58.526 17.862,69.544 3.628,70.787C3.111,70.88 1.782,71.082 0,71.082" style="fill-rule:nonzero;"/>
                </g>
                <g transform="matrix(0.98117,0.193146,0.193146,-0.98117,302.113,733.541)">
                    <path d="M1.682,-0.716C5.011,4.796 1.138,15.423 1.077,15.497C-0.022,16.824 0.582,19.068 1.682,17.742C2.048,17.3 10.578,6.814 4.93,-2.538C4.456,-3.321 0.791,-2.191 1.682,-0.716" style="fill-rule:nonzero;"/>
                </g>
                <g transform="matrix(1,0,0,1,210.25,327.346)">
                    <path d="M0,26.294C-1.493,26.294 -2.884,25.349 -3.382,23.856C-3.9,22.304 -3.291,20.648 -2,19.774C-1.879,19.663 -1.723,19.511 -1.528,19.325C10.252,8.049 25.468,1.599 43.697,0.155C45.661,0 46.223,2.651 44.26,2.807C27.712,4.118 13.966,14.366 3.403,24.477C2.499,25.342 2.001,25.819 1.129,26.11C0.754,26.235 0.374,26.294 0,26.294" style="fill-rule:nonzero;"/>
                </g>
                <g transform="matrix(1,0,0,1,399.848,320.8)">
                    <path d="M0,15.902C-0.629,15.902 -1.265,15.736 -1.842,15.387C-14.526,7.714 -25.721,9.44 -26.191,9.555C-28.099,10.021 -28.948,7.583 -27.046,7.098C-26.465,6.948 -13.498,0 1.849,9.285C3.534,10.304 4.074,12.496 3.055,14.181C2.384,15.289 1.207,15.902 0,15.902" style="fill-rule:nonzero;"/>
                </g>
            </g>
            <g id="nose" transform="matrix(4.17204,0,0,3.75073,-466.377,-782.603)">
                <g transform="matrix(1,0,0,1,420.822,488.257)">
                    <path d="M0,-31.787C0,-31.787 4.467,-39.933 17.35,-44.629C24.612,-47.276 34.547,-48.828 47.865,-47.206C47.865,-47.206 94.123,-41.103 66.175,-4.482C66.175,-4.482 51.077,17.041 29.554,3.871C29.554,3.871 -13.171,-14.119 0,-31.787Z" style="fill-rule:nonzero;stroke:black;stroke-width:5px;"/>
                </g>
                <g transform="matrix(0,-1,-1,0,470.887,437.836)">
                    <path d="M-19.35,-20.242C-24.062,-20.242 -27.882,-14.838 -27.882,-2.675C-27.882,9.489 -24.062,19.35 -19.35,19.35C-14.638,19.35 -11.71,9.489 -11.71,-2.675C-11.71,-14.838 -14.638,-20.242 -19.35,-20.242" style="fill:white;fill-rule:nonzero;"/>
                </g>
            </g>
        </g>
    </g>
</svg>
