<?xml version="1.0" encoding="UTF-8" standalone="no"?>
<!DOCTYPE svg PUBLIC "-//W3C//DTD SVG 1.1//EN" "http://www.w3.org/Graphics/SVG/1.1/DTD/svg11.dtd">
<svg width="100%" height="100%" viewBox="0 0 386 364" version="1.1" xmlns="http://www.w3.org/2000/svg" xmlns:xlink="http://www.w3.org/1999/xlink" xml:space="preserve" xmlns:serif="http://www.serif.com/" style="fill-rule:evenodd;clip-rule:evenodd;stroke-linejoin:round;stroke-miterlimit:2;">
    <g id="Layer-4" serif:id="Layer 4">
    </g>
    <g id="Artboard1" transform="matrix(0.931243,0,0,0.879085,-464.376,-289.615)">
        <rect x="498.662" y="329.451" width="413.565" height="413.565" style="fill:none;"/>
        <g id="Layer-1" serif:id="Layer 1" transform="matrix(1.07383,0,0,1.13755,-66.6413,-44.8018)">
            <g transform="matrix(1,0,0,1,581.966,632.253)">
                <path d="M0,-239.789C-0.136,-229.748 7.668,-221.516 17.275,-221.564C26.793,-221.613 34.616,-229.425 34.872,-239.135C35.129,-248.943 27.177,-257.216 17.448,-257.263C7.856,-257.309 0.132,-249.573 0,-239.789M186.725,-219.258C198.321,-219.197 207.752,-228.819 207.769,-240.725C207.785,-252.27 198.418,-262.007 187.135,-262.175C175.523,-262.349 166.045,-252.808 165.994,-240.893C165.942,-228.81 175.037,-219.318 186.725,-219.258M162.442,22.56C172.331,21.345 182.361,20.813 192.086,18.804C258.652,5.054 297.469,-58.289 300.89,-119.694C301.212,-125.47 297.034,-130.308 291.535,-131.833C282.922,-134.222 276.079,-128.089 275.145,-117.379C273.052,-93.363 265.722,-71.064 251.999,-51.19C233.445,-24.322 208.454,-6.918 175.358,-4.449C139.315,-1.759 104.769,-8.633 72.214,-24.817C46.083,-37.806 22.898,-55.166 -0.081,-72.871C-6.803,-78.05 -14.53,-77.492 -19.145,-71.603C-23.85,-65.6 -22.694,-57.961 -15.828,-52.847C-1.801,-42.401 12.154,-31.83 26.574,-21.945C67.443,6.07 112.369,21.798 162.442,22.56" style="fill:white;fill-rule:nonzero;"/>
            </g>
            <g transform="matrix(1,0,0,1,744.408,498.031)">
                <path d="M0,156.782C-50.073,156.02 -94.999,140.292 -135.868,112.277C-150.288,102.392 -164.243,91.821 -178.27,81.375C-185.136,76.261 -186.292,68.622 -181.586,62.619C-176.972,56.73 -169.245,56.172 -162.522,61.351C-139.544,79.055 -116.359,96.416 -90.228,109.405C-57.673,125.589 -23.127,132.463 12.916,129.773C46.012,127.303 71.003,109.9 89.557,83.032C103.28,63.158 110.61,40.859 112.703,16.843C113.637,6.133 120.48,0 129.093,2.388C134.592,3.914 138.771,8.752 138.448,14.528C135.027,75.932 96.21,139.276 29.645,153.026C19.919,155.035 9.889,155.567 0,156.782" style="fill:white;fill-rule:nonzero;"/>
            </g>
            <g transform="matrix(0.999954,0.00955289,0.00955289,-0.999954,768.486,412.993)">
                <path d="M0.206,-0C-11.483,-0.051 -20.668,9.353 -20.731,21.436C-20.794,33.351 -11.408,42.982 0.206,42.919C11.49,42.858 20.949,33.211 21.044,21.667C21.14,9.761 11.802,0.049 0.206,-0" style="fill:white;fill-rule:nonzero;"/>
            </g>
            <g transform="matrix(-0.018751,0.999824,0.999824,0.018751,600.167,375.355)">
                <path d="M17.448,-17.877C7.663,-17.928 -0.216,-10.351 -0.35,-0.76C-0.485,8.968 7.637,17.074 17.448,17.001C27.161,16.927 35.119,9.252 35.346,-0.263C35.574,-9.868 27.49,-17.825 17.448,-17.877" style="fill:white;fill-rule:nonzero;"/>
            </g>
        </g>
    </g>
</svg>
